<?xml version="1.0" encoding="UTF-8" standalone="no"?>
<svg
   xmlns:dc="http://purl.org/dc/elements/1.1/"
   xmlns:cc="http://creativecommons.org/ns#"
   xmlns:rdf="http://www.w3.org/1999/02/22-rdf-syntax-ns#"
   xmlns:svg="http://www.w3.org/2000/svg"
   xmlns="http://www.w3.org/2000/svg"
   viewBox="0 0 666.66669 666.66669"
   height="666.66669"
   width="666.66669"
   xml:space="preserve"
   id="svg2"
   version="1.1"><metadata
     id="metadata8"><rdf:RDF><cc:Work
         rdf:about=""><dc:format>image/svg+xml</dc:format><dc:type
           rdf:resource="http://purl.org/dc/dcmitype/StillImage" /></cc:Work></rdf:RDF></metadata><defs
     id="defs6" /><g
     transform="matrix(1.3333333,0,0,-1.3333333,0,666.66667)"
     id="g10"><g
       transform="scale(0.1)"
       id="g12"><path
         id="path14"
         style="fill:#ebece9;fill-opacity:1;fill-rule:nonzero;stroke:none"
         d="M 5000,0 H 0 V 5000 H 5000 V 0" /><path
         id="path16"
         style="fill:#1b181a;fill-opacity:1;fill-rule:nonzero;stroke:none"
         d="m 4949.32,4641.56 -178.09,-102.82 -178.09,102.82 v 205.64 l 178.09,102.82 178.09,-102.82 z m -366.18,211.41 v -217.18 l 188.09,-108.6 188.09,108.6 v 217.18 l -188.09,108.6 -188.09,-108.6" /><path
         id="path18"
         style="fill:#1b181a;fill-opacity:1;fill-rule:nonzero;stroke:none"
         d="m 4176.28,4847.2 178.09,102.82 178.09,-102.82 v -205.64 l -178.09,-102.82 -178.09,102.82 z m 366.18,-211.41 v 217.18 l -188.09,108.6 -188.09,-108.6 v -217.18 l 188.09,-108.6 188.09,108.6" /><path
         id="path20"
         style="fill:#1b181a;fill-opacity:1;fill-rule:nonzero;stroke:none"
         d="m 4384.71,4488.71 178.09,102.83 178.09,-102.83 v -205.64 l -178.09,-102.82 -178.09,102.82 z m -10,-211.41 188.09,-108.59 188.09,108.59 v 217.19 L 4562.8,4603.08 4374.71,4494.49 V 4277.3" /><path
         id="path22"
         style="fill:#1b181a;fill-opacity:1;fill-rule:nonzero;stroke:none"
         d="m 3759.42,4847.2 178.09,102.82 178.09,-102.82 v -205.64 l -178.09,-102.82 -178.09,102.82 z m 366.18,-211.41 v 217.18 l -188.09,108.6 -188.09,-108.6 v -217.18 l 188.09,-108.6 188.09,108.6" /><path
         id="path24"
         style="fill:#1b181a;fill-opacity:1;fill-rule:nonzero;stroke:none"
         d="m 3342.56,4847.2 178.09,102.82 178.09,-102.82 v -205.64 l -178.09,-102.82 -178.09,102.82 z m 366.18,-211.41 v 217.18 l -188.09,108.6 -188.09,-108.6 v -217.18 l 188.09,-108.6 188.09,108.6" /><path
         id="path26"
         style="fill:#1b181a;fill-opacity:1;fill-rule:nonzero;stroke:none"
         d="m 3550.99,4488.71 178.09,102.83 178.09,-102.83 v -205.64 l -178.09,-102.82 -178.09,102.82 z m -10,-211.41 188.09,-108.59 188.09,108.59 v 217.19 l -188.09,108.59 -188.09,-108.59 V 4277.3" /><path
         id="path28"
         style="fill:#1b181a;fill-opacity:1;fill-rule:nonzero;stroke:none"
         d="m 2928.03,4847.2 178.09,102.82 178.09,-102.82 v -205.64 l -178.09,-102.82 -178.09,102.82 z m 366.18,-211.41 v 217.18 l -188.09,108.6 -188.09,-108.6 v -217.18 l 188.09,-108.6 188.09,108.6" /><path
         id="path30"
         style="fill:#1b181a;fill-opacity:1;fill-rule:nonzero;stroke:none"
         d="m 2511.17,4847.2 178.09,102.82 178.09,-102.82 v -205.64 l -178.09,-102.82 -178.09,102.82 z m 366.18,-211.41 v 217.18 l -188.09,108.6 -188.09,-108.6 v -217.18 l 188.09,-108.6 188.09,108.6" /><path
         id="path32"
         style="fill:#1b181a;fill-opacity:1;fill-rule:nonzero;stroke:none"
         d="m 2719.6,4488.71 178.09,102.83 178.09,-102.83 v -205.64 l -178.09,-102.82 -178.09,102.82 z m -10,-211.41 188.09,-108.59 188.09,108.59 v 217.19 L 2897.69,4603.08 2709.6,4494.49 V 4277.3" /><path
         id="path34"
         style="fill:#1b181a;fill-opacity:1;fill-rule:nonzero;stroke:none"
         d="m 2094.3,4847.2 178.1,102.82 178.09,-102.82 v -205.64 l -178.09,-102.82 -178.1,102.82 z m 366.19,-211.41 v 217.18 l -188.09,108.6 -188.1,-108.6 v -217.18 l 188.1,-108.6 188.09,108.6" /><path
         id="path36"
         style="fill:#1b181a;fill-opacity:1;fill-rule:nonzero;stroke:none"
         d="m 1677.44,4847.2 178.09,102.82 178.1,-102.82 v -205.64 l -178.1,-102.82 -178.09,102.82 z m 366.19,-211.41 v 217.18 l -188.1,108.6 -188.09,-108.6 v -217.18 l 188.09,-108.6 188.1,108.6" /><path
         id="path38"
         style="fill:#1b181a;fill-opacity:1;fill-rule:nonzero;stroke:none"
         d="m 1885.87,4488.71 178.09,102.83 178.1,-102.83 v -205.64 l -178.1,-102.82 -178.09,102.82 z m -10,-211.41 188.09,-108.59 188.1,108.59 v 217.19 l -188.1,108.59 -188.09,-108.59 V 4277.3" /><path
         id="path40"
         style="fill:#1b181a;fill-opacity:1;fill-rule:nonzero;stroke:none"
         d="m 1260.58,4847.2 178.09,102.82 178.1,-102.82 v -205.64 l -178.1,-102.82 -178.09,102.82 z m 366.19,-211.41 v 217.18 l -188.1,108.6 -188.09,-108.6 v -217.18 l 188.09,-108.6 188.1,108.6" /><path
         id="path42"
         style="fill:#1b181a;fill-opacity:1;fill-rule:nonzero;stroke:none"
         d="m 1052.15,4488.71 178.09,102.83 178.09,-102.83 v -205.64 l -178.09,-102.82 -178.09,102.82 z m -10,-211.41 188.09,-108.59 188.09,108.59 v 217.19 l -188.09,108.59 -188.09,-108.59 V 4277.3" /><path
         id="path44"
         style="fill:#1b181a;fill-opacity:1;fill-rule:nonzero;stroke:none"
         d="M 843.723,4847.2 1021.81,4950.02 1199.9,4847.2 V 4641.56 L 1021.81,4538.74 843.723,4641.56 Z M 1209.9,4635.79 v 217.18 l -188.09,108.6 -188.087,-108.6 v -217.18 l 188.087,-108.6 188.09,108.6" /><path
         id="path46"
         style="fill:#1b181a;fill-opacity:1;fill-rule:nonzero;stroke:none"
         d="m 426.863,4847.2 178.09,102.82 178.09,-102.82 v -205.64 l -178.09,-102.82 -178.09,102.82 z m 366.18,-211.41 v 217.18 l -188.09,108.6 -188.09,-108.6 v -217.18 l 188.09,-108.6 188.09,108.6" /><path
         id="path48"
         style="fill:#1b181a;fill-opacity:1;fill-rule:nonzero;stroke:none"
         d="M 10,4847.2 188.09,4950.02 366.184,4847.2 V 4641.56 L 188.09,4538.74 10,4641.56 Z m 366.184,-211.41 v 217.18 L 188.09,4961.57 0,4852.97 v -217.18 l 188.09,-108.6 188.094,108.6" /><path
         id="path50"
         style="fill:#1b181a;fill-opacity:1;fill-rule:nonzero;stroke:none"
         d="m 218.43,4488.71 178.09,102.83 178.093,-102.83 V 4283.07 L 396.52,4180.25 218.43,4283.07 Z M 584.613,4277.3 v 217.19 L 396.52,4603.08 208.43,4494.49 V 4277.3 l 188.09,-108.59 188.093,108.59" /><path
         id="path52"
         style="fill:#1b181a;fill-opacity:1;fill-rule:nonzero;stroke:none"
         d="m 635.293,4488.71 178.09,102.83 178.09,-102.83 v -205.64 l -178.09,-102.82 -178.09,102.82 z m -10,-211.41 188.09,-108.59 188.087,108.59 v 217.19 L 813.383,4603.08 625.293,4494.49 V 4277.3" /><path
         id="path54"
         style="fill:#1b181a;fill-opacity:1;fill-rule:nonzero;stroke:none"
         d="m 1467.49,4488.71 178.09,102.83 178.09,-102.83 v -205.64 l -178.09,-102.82 -178.09,102.82 z m -10,-211.41 188.09,-108.59 188.09,108.59 v 217.19 l -188.09,108.59 -188.09,-108.59 V 4277.3" /><path
         id="path56"
         style="fill:#1b181a;fill-opacity:1;fill-rule:nonzero;stroke:none"
         d="m 2299.69,4488.71 178.09,102.83 178.09,-102.83 v -205.64 l -178.09,-102.82 -178.09,102.82 z m -10,-211.41 188.09,-108.59 188.09,108.59 v 217.19 l -188.09,108.59 -188.09,-108.59 V 4277.3" /><path
         id="path58"
         style="fill:#1b181a;fill-opacity:1;fill-rule:nonzero;stroke:none"
         d="m 3131.88,4488.71 178.09,102.83 178.1,-102.83 v -205.64 l -178.1,-102.82 -178.09,102.82 z m -10,-211.41 188.09,-108.59 188.1,108.59 v 217.19 l -188.1,108.59 -188.09,-108.59 V 4277.3" /><path
         id="path60"
         style="fill:#1b181a;fill-opacity:1;fill-rule:nonzero;stroke:none"
         d="m 3964.08,4488.71 178.09,102.83 178.09,-102.83 v -205.64 l -178.09,-102.82 -178.09,102.82 z m -10,-211.41 188.09,-108.59 188.09,108.59 v 217.19 l -188.09,108.59 -188.09,-108.59 V 4277.3" /><path
         id="path62"
         style="fill:#1b181a;fill-opacity:1;fill-rule:nonzero;stroke:none"
         d="M 4786.28,4494.49 V 4277.3 l 188.09,-108.59 25.63,14.79 v 11.55 l -25.63,-14.8 -178.09,102.82 v 205.64 l 178.09,102.83 25.63,-14.81 v 11.56 l -25.63,14.79 -188.09,-108.59" /><path
         id="path64"
         style="fill:#1b181a;fill-opacity:1;fill-rule:nonzero;stroke:none"
         d="M 162.457,4494.49 0,4588.29 v -11.56 l 152.457,-88.02 V 4283.07 L 0,4195.05 v -11.55 l 162.457,93.8 v 217.19" /><path
         id="path66"
         style="fill:#1b181a;fill-opacity:1;fill-rule:nonzero;stroke:none"
         d="m 4949.32,3922.85 -178.09,-102.82 -178.09,102.82 v 205.64 l 178.09,102.82 178.09,-102.82 z m -366.18,211.42 v -217.19 l 188.09,-108.6 188.09,108.6 v 217.19 l -188.09,108.59 -188.09,-108.59" /><path
         id="path68"
         style="fill:#1b181a;fill-opacity:1;fill-rule:nonzero;stroke:none"
         d="m 4532.46,3922.85 -178.09,-102.82 -178.09,102.82 v 205.64 l 178.09,102.82 178.09,-102.82 z m 10,211.42 -188.09,108.59 -188.09,-108.59 v -217.19 l 188.09,-108.6 188.09,108.6 v 217.19" /><path
         id="path70"
         style="fill:#1b181a;fill-opacity:1;fill-rule:nonzero;stroke:none"
         d="m 4740.89,3564.37 -178.09,-102.83 -178.09,102.83 v 205.64 l 178.09,102.82 178.09,-102.82 z m 10,211.41 -188.09,108.59 -188.09,-108.59 V 3558.59 L 4562.8,3450 l 188.09,108.59 v 217.19" /><path
         id="path72"
         style="fill:#1b181a;fill-opacity:1;fill-rule:nonzero;stroke:none"
         d="m 4115.6,3922.85 -178.09,-102.82 -178.09,102.82 v 205.64 l 178.09,102.82 178.09,-102.82 z m -366.18,211.42 v -217.19 l 188.09,-108.6 188.09,108.6 v 217.19 l -188.09,108.59 -188.09,-108.59" /><path
         id="path74"
         style="fill:#1b181a;fill-opacity:1;fill-rule:nonzero;stroke:none"
         d="m 3698.74,3922.85 -178.09,-102.82 -178.09,102.82 v 205.64 l 178.09,102.82 178.09,-102.82 z m -366.18,211.42 v -217.19 l 188.09,-108.6 188.09,108.6 v 217.19 l -188.09,108.59 -188.09,-108.59" /><path
         id="path76"
         style="fill:#1b181a;fill-opacity:1;fill-rule:nonzero;stroke:none"
         d="m 3907.17,3564.37 -178.09,-102.83 -178.09,102.83 v 205.64 l 178.09,102.82 178.09,-102.82 z m -366.18,211.41 v -217.19 l 188.09,-108.59 188.09,108.59 v 217.19 l -188.09,108.59 -188.09,-108.59" /><path
         id="path78"
         style="fill:#1b181a;fill-opacity:1;fill-rule:nonzero;stroke:none"
         d="m 3284.21,3922.85 -178.09,-102.82 -178.09,102.82 v 205.64 l 178.09,102.82 178.09,-102.82 z m -366.18,211.42 v -217.19 l 188.09,-108.6 188.09,108.6 v 217.19 l -188.09,108.59 -188.09,-108.59" /><path
         id="path80"
         style="fill:#1b181a;fill-opacity:1;fill-rule:nonzero;stroke:none"
         d="m 2867.35,3922.85 -178.09,-102.82 -178.09,102.82 v 205.64 l 178.09,102.82 178.09,-102.82 z m -366.18,211.42 v -217.19 l 188.09,-108.6 188.09,108.6 v 217.19 l -188.09,108.59 -188.09,-108.59" /><path
         id="path82"
         style="fill:#1b181a;fill-opacity:1;fill-rule:nonzero;stroke:none"
         d="m 3075.78,3564.37 -178.09,-102.83 -178.09,102.83 v 205.64 l 178.09,102.82 178.09,-102.82 z m -366.18,211.41 v -217.19 l 188.09,-108.59 188.09,108.59 v 217.19 l -188.09,108.59 -188.09,-108.59" /><path
         id="path84"
         style="fill:#1b181a;fill-opacity:1;fill-rule:nonzero;stroke:none"
         d="m 2450.49,3922.85 -178.09,-102.82 -178.1,102.82 v 205.64 l 178.1,102.82 178.09,-102.82 z m -366.19,211.42 v -217.19 l 188.1,-108.6 188.09,108.6 v 217.19 l -188.09,108.59 -188.1,-108.59" /><path
         id="path86"
         style="fill:#1b181a;fill-opacity:1;fill-rule:nonzero;stroke:none"
         d="m 2033.63,3922.85 -178.1,-102.82 -178.09,102.82 v 205.64 l 178.09,102.82 178.1,-102.82 z m -366.19,211.42 v -217.19 l 188.09,-108.6 188.1,108.6 v 217.19 l -188.1,108.59 -188.09,-108.59" /><path
         id="path88"
         style="fill:#1b181a;fill-opacity:1;fill-rule:nonzero;stroke:none"
         d="m 2242.06,3564.37 -178.1,-102.83 -178.09,102.83 v 205.64 l 178.09,102.82 178.1,-102.82 z m -366.19,211.41 v -217.19 l 188.09,-108.59 188.1,108.59 v 217.19 l -188.1,108.59 -188.09,-108.59" /><path
         id="path90"
         style="fill:#1b181a;fill-opacity:1;fill-rule:nonzero;stroke:none"
         d="m 1616.77,3922.85 -178.1,-102.82 -178.09,102.82 v 205.64 l 178.09,102.82 178.1,-102.82 z m -366.19,211.42 v -217.19 l 188.09,-108.6 188.1,108.6 v 217.19 l -188.1,108.59 -188.09,-108.59" /><path
         id="path92"
         style="fill:#1b181a;fill-opacity:1;fill-rule:nonzero;stroke:none"
         d="m 1408.33,3564.37 -178.09,-102.83 -178.09,102.83 v 205.64 l 178.09,102.82 178.09,-102.82 z m -366.18,211.41 v -217.19 l 188.09,-108.59 188.09,108.59 v 217.19 l -188.09,108.59 -188.09,-108.59" /><path
         id="path94"
         style="fill:#1b181a;fill-opacity:1;fill-rule:nonzero;stroke:none"
         d="m 1199.9,3922.85 -178.09,-102.82 -178.087,102.82 v 205.64 l 178.087,102.82 178.09,-102.82 z m -366.177,211.42 v -217.19 l 188.087,-108.6 188.09,108.6 v 217.19 l -188.09,108.59 -188.087,-108.59" /><path
         id="path96"
         style="fill:#1b181a;fill-opacity:1;fill-rule:nonzero;stroke:none"
         d="m 783.043,3922.85 -178.09,-102.82 -178.09,102.82 v 205.64 l 178.09,102.82 178.09,-102.82 z m -366.18,211.42 v -217.19 l 188.09,-108.6 188.09,108.6 v 217.19 l -188.09,108.59 -188.09,-108.59" /><path
         id="path98"
         style="fill:#1b181a;fill-opacity:1;fill-rule:nonzero;stroke:none"
         d="m 10,4128.49 178.09,102.82 178.094,-102.82 V 3922.85 L 188.09,3820.03 10,3922.85 Z m 366.184,-211.41 v 217.19 L 188.09,4242.86 0,4134.27 v -217.19 l 188.09,-108.6 188.094,108.6" /><path
         id="path100"
         style="fill:#1b181a;fill-opacity:1;fill-rule:nonzero;stroke:none"
         d="m 218.43,3770.01 178.09,102.82 178.093,-102.82 V 3564.37 L 396.52,3461.54 218.43,3564.37 Z m 366.183,-211.42 v 217.19 L 396.52,3884.37 208.43,3775.78 V 3558.59 L 396.52,3450 584.613,3558.59" /><path
         id="path102"
         style="fill:#1b181a;fill-opacity:1;fill-rule:nonzero;stroke:none"
         d="m 991.473,3564.37 -178.09,-102.83 -178.09,102.83 v 205.64 l 178.09,102.82 178.09,-102.82 z m -366.18,211.41 V 3558.59 L 813.383,3450 1001.47,3558.59 v 217.19 l -188.087,108.59 -188.09,-108.59" /><path
         id="path104"
         style="fill:#1b181a;fill-opacity:1;fill-rule:nonzero;stroke:none"
         d="m 1823.67,3564.37 -178.09,-102.83 -178.09,102.83 v 205.64 l 178.09,102.82 178.09,-102.82 z m -366.18,211.41 v -217.19 l 188.09,-108.59 188.09,108.59 v 217.19 l -188.09,108.59 -188.09,-108.59" /><path
         id="path106"
         style="fill:#1b181a;fill-opacity:1;fill-rule:nonzero;stroke:none"
         d="m 2655.87,3564.37 -178.09,-102.83 -178.09,102.83 v 205.64 l 178.09,102.82 178.09,-102.82 z m -366.18,211.41 v -217.19 l 188.09,-108.59 188.09,108.59 v 217.19 l -188.09,108.59 -188.09,-108.59" /><path
         id="path108"
         style="fill:#1b181a;fill-opacity:1;fill-rule:nonzero;stroke:none"
         d="m 3488.07,3564.37 -178.1,-102.83 -178.09,102.83 v 205.64 l 178.09,102.82 178.1,-102.82 z m -366.19,211.41 v -217.19 l 188.09,-108.59 188.1,108.59 v 217.19 l -188.1,108.59 -188.09,-108.59" /><path
         id="path110"
         style="fill:#1b181a;fill-opacity:1;fill-rule:nonzero;stroke:none"
         d="m 4320.26,3564.37 -178.09,-102.83 -178.09,102.83 v 205.64 l 178.09,102.82 178.09,-102.82 z m -366.18,211.41 v -217.19 l 188.09,-108.59 188.09,108.59 v 217.19 l -188.09,108.59 -188.09,-108.59" /><path
         id="path112"
         style="fill:#1b181a;fill-opacity:1;fill-rule:nonzero;stroke:none"
         d="M 4786.28,3775.78 V 3558.59 L 4974.37,3450 5000,3464.8 v 11.54 l -25.63,-14.8 -178.09,102.83 v 205.64 l 178.09,102.82 25.63,-14.8 v 11.55 l -25.63,14.79 -188.09,-108.59" /><path
         id="path114"
         style="fill:#1b181a;fill-opacity:1;fill-rule:nonzero;stroke:none"
         d="M 162.457,3775.78 0,3869.58 v -11.55 l 152.457,-88.02 V 3564.37 L 0,3476.34 v -11.54 l 162.457,93.79 v 217.19" /><path
         id="path116"
         style="fill:#1b181a;fill-opacity:1;fill-rule:nonzero;stroke:none"
         d="m 4949.32,3204.14 -178.09,-102.82 -178.09,102.82 v 205.64 l 178.09,102.82 178.09,-102.82 z m -366.18,211.42 v -217.19 l 188.09,-108.59 188.09,108.59 v 217.19 l -188.09,108.59 -188.09,-108.59" /><path
         id="path118"
         style="fill:#1b181a;fill-opacity:1;fill-rule:nonzero;stroke:none"
         d="m 4532.46,3204.14 -178.09,-102.82 -178.09,102.82 v 205.64 l 178.09,102.82 178.09,-102.82 z m 10,211.42 -188.09,108.59 -188.09,-108.59 v -217.19 l 188.09,-108.59 188.09,108.59 v 217.19" /><path
         id="path120"
         style="fill:#1b181a;fill-opacity:1;fill-rule:nonzero;stroke:none"
         d="m 4740.89,2845.66 -178.09,-102.82 -178.09,102.82 v 205.64 l 178.09,102.82 178.09,-102.82 z m 10,211.41 -188.09,108.6 -188.09,-108.6 v -217.18 l 188.09,-108.6 188.09,108.6 v 217.18" /><path
         id="path122"
         style="fill:#1b181a;fill-opacity:1;fill-rule:nonzero;stroke:none"
         d="m 4115.6,3204.14 -178.09,-102.82 -178.09,102.82 v 205.64 l 178.09,102.82 178.09,-102.82 z m -366.18,211.42 v -217.19 l 188.09,-108.59 188.09,108.59 v 217.19 l -188.09,108.59 -188.09,-108.59" /><path
         id="path124"
         style="fill:#1b181a;fill-opacity:1;fill-rule:nonzero;stroke:none"
         d="m 3698.74,3204.14 -178.09,-102.82 -178.09,102.82 v 205.64 l 178.09,102.82 178.09,-102.82 z m -366.18,211.42 v -217.19 l 188.09,-108.59 188.09,108.59 v 217.19 l -188.09,108.59 -188.09,-108.59" /><path
         id="path126"
         style="fill:#1b181a;fill-opacity:1;fill-rule:nonzero;stroke:none"
         d="m 3907.17,2845.66 -178.09,-102.82 -178.09,102.82 v 205.64 l 178.09,102.82 178.09,-102.82 z m -366.18,211.41 v -217.18 l 188.09,-108.6 188.09,108.6 v 217.18 l -188.09,108.6 -188.09,-108.6" /><path
         id="path128"
         style="fill:#1b181a;fill-opacity:1;fill-rule:nonzero;stroke:none"
         d="m 3284.21,3204.14 -178.09,-102.82 -178.09,102.82 v 205.64 l 178.09,102.82 178.09,-102.82 z m -366.18,211.42 v -217.19 l 188.09,-108.59 188.09,108.59 v 217.19 l -188.09,108.59 -188.09,-108.59" /><path
         id="path130"
         style="fill:#1b181a;fill-opacity:1;fill-rule:nonzero;stroke:none"
         d="m 2867.35,3204.14 -178.09,-102.82 -178.09,102.82 v 205.64 l 178.09,102.82 178.09,-102.82 z m -366.18,211.42 v -217.19 l 188.09,-108.59 188.09,108.59 v 217.19 l -188.09,108.59 -188.09,-108.59" /><path
         id="path132"
         style="fill:#1b181a;fill-opacity:1;fill-rule:nonzero;stroke:none"
         d="m 3075.78,2845.66 -178.09,-102.82 -178.09,102.82 v 205.64 l 178.09,102.82 178.09,-102.82 z m -366.18,211.41 v -217.18 l 188.09,-108.6 188.09,108.6 v 217.18 l -188.09,108.6 -188.09,-108.6" /><path
         id="path134"
         style="fill:#1b181a;fill-opacity:1;fill-rule:nonzero;stroke:none"
         d="m 2450.49,3204.14 -178.09,-102.82 -178.1,102.82 v 205.64 l 178.1,102.82 178.09,-102.82 z m -366.19,211.42 v -217.19 l 188.1,-108.59 188.09,108.59 v 217.19 l -188.09,108.59 -188.1,-108.59" /><path
         id="path136"
         style="fill:#1b181a;fill-opacity:1;fill-rule:nonzero;stroke:none"
         d="m 2033.63,3204.14 -178.1,-102.82 -178.09,102.82 v 205.64 l 178.09,102.82 178.1,-102.82 z m -366.19,211.42 v -217.19 l 188.09,-108.59 188.1,108.59 v 217.19 l -188.1,108.59 -188.09,-108.59" /><path
         id="path138"
         style="fill:#1b181a;fill-opacity:1;fill-rule:nonzero;stroke:none"
         d="m 2242.06,2845.66 -178.1,-102.82 -178.09,102.82 v 205.64 l 178.09,102.82 178.1,-102.82 z m -366.19,211.41 v -217.18 l 188.09,-108.6 188.1,108.6 v 217.18 l -188.1,108.6 -188.09,-108.6" /><path
         id="path140"
         style="fill:#1b181a;fill-opacity:1;fill-rule:nonzero;stroke:none"
         d="m 1616.77,3204.14 -178.1,-102.82 -178.09,102.82 v 205.64 l 178.09,102.82 178.1,-102.82 z m -366.19,211.42 v -217.19 l 188.09,-108.59 188.1,108.59 v 217.19 l -188.1,108.59 -188.09,-108.59" /><path
         id="path142"
         style="fill:#1b181a;fill-opacity:1;fill-rule:nonzero;stroke:none"
         d="m 1408.33,2845.66 -178.09,-102.82 -178.09,102.82 v 205.64 l 178.09,102.82 178.09,-102.82 z m -366.18,211.41 v -217.18 l 188.09,-108.6 188.09,108.6 v 217.18 l -188.09,108.6 -188.09,-108.6" /><path
         id="path144"
         style="fill:#1b181a;fill-opacity:1;fill-rule:nonzero;stroke:none"
         d="m 1199.9,3204.14 -178.09,-102.82 -178.087,102.82 v 205.64 l 178.087,102.82 178.09,-102.82 z m -366.177,211.42 v -217.19 l 188.087,-108.59 188.09,108.59 v 217.19 l -188.09,108.59 -188.087,-108.59" /><path
         id="path146"
         style="fill:#1b181a;fill-opacity:1;fill-rule:nonzero;stroke:none"
         d="m 426.863,3409.78 178.09,102.82 178.09,-102.82 v -205.64 l -178.09,-102.82 -178.09,102.82 z m -10,-211.41 188.09,-108.59 188.09,108.59 v 217.19 l -188.09,108.59 -188.09,-108.59 v -217.19" /><path
         id="path148"
         style="fill:#1b181a;fill-opacity:1;fill-rule:nonzero;stroke:none"
         d="M 10,3409.78 188.09,3512.6 366.184,3409.78 V 3204.14 L 188.09,3101.32 10,3204.14 Z m 366.184,-211.41 v 217.19 L 188.09,3524.15 0,3415.56 v -217.19 l 188.09,-108.59 188.094,108.59" /><path
         id="path150"
         style="fill:#1b181a;fill-opacity:1;fill-rule:nonzero;stroke:none"
         d="M 218.43,3051.3 396.52,3154.12 574.613,3051.3 V 2845.66 L 396.52,2742.84 218.43,2845.66 Z m 366.183,-211.41 v 217.18 l -188.093,108.6 -188.09,-108.6 v -217.18 l 188.09,-108.6 188.093,108.6" /><path
         id="path152"
         style="fill:#1b181a;fill-opacity:1;fill-rule:nonzero;stroke:none"
         d="m 991.473,2845.66 -178.09,-102.82 -178.09,102.82 v 205.64 l 178.09,102.82 178.09,-102.82 z m -366.18,211.41 v -217.18 l 188.09,-108.6 188.087,108.6 v 217.18 l -188.087,108.6 -188.09,-108.6" /><path
         id="path154"
         style="fill:#1b181a;fill-opacity:1;fill-rule:nonzero;stroke:none"
         d="m 1823.67,2845.66 -178.09,-102.82 -178.09,102.82 v 205.64 l 178.09,102.82 178.09,-102.82 z m -366.18,211.41 v -217.18 l 188.09,-108.6 188.09,108.6 v 217.18 l -188.09,108.6 -188.09,-108.6" /><path
         id="path156"
         style="fill:#1b181a;fill-opacity:1;fill-rule:nonzero;stroke:none"
         d="m 2655.87,2845.66 -178.09,-102.82 -178.09,102.82 v 205.64 l 178.09,102.82 178.09,-102.82 z m -366.18,211.41 v -217.18 l 188.09,-108.6 188.09,108.6 v 217.18 l -188.09,108.6 -188.09,-108.6" /><path
         id="path158"
         style="fill:#1b181a;fill-opacity:1;fill-rule:nonzero;stroke:none"
         d="m 3488.07,2845.66 -178.1,-102.82 -178.09,102.82 v 205.64 l 178.09,102.82 178.1,-102.82 z m -366.19,211.41 v -217.18 l 188.09,-108.6 188.1,108.6 v 217.18 l -188.1,108.6 -188.09,-108.6" /><path
         id="path160"
         style="fill:#1b181a;fill-opacity:1;fill-rule:nonzero;stroke:none"
         d="m 3964.08,3051.3 178.09,102.82 178.09,-102.82 v -205.64 l -178.09,-102.82 -178.09,102.82 z m 366.18,-211.41 v 217.18 l -188.09,108.6 -188.09,-108.6 v -217.18 l 188.09,-108.6 188.09,108.6" /><path
         id="path162"
         style="fill:#1b181a;fill-opacity:1;fill-rule:nonzero;stroke:none"
         d="m 4786.28,3057.07 v -217.18 l 188.09,-108.6 25.63,14.8 v 11.55 l -25.63,-14.8 -178.09,102.82 v 205.64 l 178.09,102.82 25.63,-14.8 v 11.55 l -25.63,14.8 -188.09,-108.6" /><path
         id="path164"
         style="fill:#1b181a;fill-opacity:1;fill-rule:nonzero;stroke:none"
         d="M 162.457,3057.07 0,3150.87 v -11.55 L 152.457,3051.3 V 2845.66 L 0,2757.64 v -11.55 l 162.457,93.8 v 217.18" /><path
         id="path166"
         style="fill:#1b181a;fill-opacity:1;fill-rule:nonzero;stroke:none"
         d="m 4949.32,2485.43 -178.09,-102.82 -178.09,102.82 v 205.65 l 178.09,102.82 178.09,-102.82 z m -366.18,211.42 v -217.19 l 188.09,-108.59 188.09,108.59 v 217.19 l -188.09,108.59 -188.09,-108.59" /><path
         id="path168"
         style="fill:#1b181a;fill-opacity:1;fill-rule:nonzero;stroke:none"
         d="m 4532.46,2485.43 -178.09,-102.82 -178.09,102.82 v 205.65 l 178.09,102.82 178.09,-102.82 z m 10,211.42 -188.09,108.59 -188.09,-108.59 v -217.19 l 188.09,-108.59 188.09,108.59 v 217.19" /><path
         id="path170"
         style="fill:#1b181a;fill-opacity:1;fill-rule:nonzero;stroke:none"
         d="m 4740.89,2126.95 -178.09,-102.82 -178.09,102.82 v 205.64 l 178.09,102.82 178.09,-102.82 z m 10,211.42 -188.09,108.59 -188.09,-108.59 v -217.19 l 188.09,-108.6 188.09,108.6 v 217.19" /><path
         id="path172"
         style="fill:#1b181a;fill-opacity:1;fill-rule:nonzero;stroke:none"
         d="m 4115.6,2485.43 -178.09,-102.82 -178.09,102.82 v 205.65 l 178.09,102.82 178.09,-102.82 z m -366.18,211.42 v -217.19 l 188.09,-108.59 188.09,108.59 v 217.19 l -188.09,108.59 -188.09,-108.59" /><path
         id="path174"
         style="fill:#1b181a;fill-opacity:1;fill-rule:nonzero;stroke:none"
         d="m 3698.74,2485.43 -178.09,-102.82 -178.09,102.82 v 205.65 l 178.09,102.82 178.09,-102.82 z m -366.18,211.42 v -217.19 l 188.09,-108.59 188.09,108.59 v 217.19 l -188.09,108.59 -188.09,-108.59" /><path
         id="path176"
         style="fill:#1b181a;fill-opacity:1;fill-rule:nonzero;stroke:none"
         d="m 3550.99,2332.59 178.09,102.82 178.09,-102.82 v -205.64 l -178.09,-102.82 -178.09,102.82 z m 366.18,-211.41 v 217.19 l -188.09,108.59 -188.09,-108.59 v -217.19 l 188.09,-108.6 188.09,108.6" /><path
         id="path178"
         style="fill:#1b181a;fill-opacity:1;fill-rule:nonzero;stroke:none"
         d="m 3284.21,2485.43 -178.09,-102.82 -178.09,102.82 v 205.65 l 178.09,102.82 178.09,-102.82 z m -366.18,211.42 v -217.19 l 188.09,-108.59 188.09,108.59 v 217.19 l -188.09,108.59 -188.09,-108.59" /><path
         id="path180"
         style="fill:#1b181a;fill-opacity:1;fill-rule:nonzero;stroke:none"
         d="m 2867.35,2485.43 -178.09,-102.82 -178.09,102.82 v 205.65 l 178.09,102.82 178.09,-102.82 z m -366.18,211.42 v -217.19 l 188.09,-108.59 188.09,108.59 v 217.19 l -188.09,108.59 -188.09,-108.59" /><path
         id="path182"
         style="fill:#1b181a;fill-opacity:1;fill-rule:nonzero;stroke:none"
         d="m 2719.6,2332.59 178.09,102.82 178.09,-102.82 v -205.64 l -178.09,-102.82 -178.09,102.82 z m 366.18,-211.41 v 217.19 l -188.09,108.59 -188.09,-108.59 v -217.19 l 188.09,-108.6 188.09,108.6" /><path
         id="path184"
         style="fill:#1b181a;fill-opacity:1;fill-rule:nonzero;stroke:none"
         d="m 2450.49,2485.43 -178.09,-102.82 -178.1,102.82 v 205.65 l 178.1,102.82 178.09,-102.82 z m -366.19,211.42 v -217.19 l 188.1,-108.59 188.09,108.59 v 217.19 l -188.09,108.59 -188.1,-108.59" /><path
         id="path186"
         style="fill:#1b181a;fill-opacity:1;fill-rule:nonzero;stroke:none"
         d="m 2033.63,2485.43 -178.1,-102.82 -178.09,102.82 v 205.65 l 178.09,102.82 178.1,-102.82 z m -366.19,211.42 v -217.19 l 188.09,-108.59 188.1,108.59 v 217.19 l -188.1,108.59 -188.09,-108.59" /><path
         id="path188"
         style="fill:#1b181a;fill-opacity:1;fill-rule:nonzero;stroke:none"
         d="m 1885.87,2332.59 178.09,102.82 178.1,-102.82 v -205.64 l -178.1,-102.82 -178.09,102.82 z m 366.19,-211.41 v 217.19 l -188.1,108.59 -188.09,-108.59 v -217.19 l 188.09,-108.6 188.1,108.6" /><path
         id="path190"
         style="fill:#1b181a;fill-opacity:1;fill-rule:nonzero;stroke:none"
         d="m 1616.77,2485.43 -178.1,-102.82 -178.09,102.82 v 205.65 l 178.09,102.82 178.1,-102.82 z m -366.19,211.42 v -217.19 l 188.09,-108.59 188.1,108.59 v 217.19 l -188.1,108.59 -188.09,-108.59" /><path
         id="path192"
         style="fill:#1b181a;fill-opacity:1;fill-rule:nonzero;stroke:none"
         d="m 1052.15,2332.59 178.09,102.82 178.09,-102.82 v -205.64 l -178.09,-102.82 -178.09,102.82 z m 366.18,-211.41 v 217.19 l -188.09,108.59 -188.09,-108.59 v -217.19 l 188.09,-108.6 188.09,108.6" /><path
         id="path194"
         style="fill:#1b181a;fill-opacity:1;fill-rule:nonzero;stroke:none"
         d="m 1199.9,2485.43 -178.09,-102.82 -178.087,102.82 v 205.65 l 178.087,102.82 178.09,-102.82 z m -366.177,211.42 v -217.19 l 188.087,-108.59 188.09,108.59 v 217.19 l -188.09,108.59 -188.087,-108.59" /><path
         id="path196"
         style="fill:#1b181a;fill-opacity:1;fill-rule:nonzero;stroke:none"
         d="m 426.863,2691.08 178.09,102.82 178.09,-102.82 v -205.65 l -178.09,-102.82 -178.09,102.82 z m -10,-211.42 188.09,-108.59 188.09,108.59 v 217.19 l -188.09,108.59 -188.09,-108.59 v -217.19" /><path
         id="path198"
         style="fill:#1b181a;fill-opacity:1;fill-rule:nonzero;stroke:none"
         d="M 10,2691.08 188.09,2793.9 366.184,2691.08 V 2485.43 L 188.09,2382.61 10,2485.43 Z m 366.184,-211.42 v 217.19 L 188.09,2805.44 0,2696.85 v -217.19 l 188.09,-108.59 188.094,108.59" /><path
         id="path200"
         style="fill:#1b181a;fill-opacity:1;fill-rule:nonzero;stroke:none"
         d="m 218.43,2332.59 178.09,102.82 178.093,-102.82 V 2126.95 L 396.52,2024.13 218.43,2126.95 Z m 366.183,-211.41 v 217.19 L 396.52,2446.96 208.43,2338.37 v -217.19 l 188.09,-108.6 188.093,108.6" /><path
         id="path202"
         style="fill:#1b181a;fill-opacity:1;fill-rule:nonzero;stroke:none"
         d="m 635.293,2332.59 178.09,102.82 178.09,-102.82 v -205.64 l -178.09,-102.82 -178.09,102.82 z m -10,-211.41 188.09,-108.6 188.087,108.6 v 217.19 l -188.087,108.59 -188.09,-108.59 v -217.19" /><path
         id="path204"
         style="fill:#1b181a;fill-opacity:1;fill-rule:nonzero;stroke:none"
         d="m 1467.49,2332.59 178.09,102.82 178.09,-102.82 v -205.64 l -178.09,-102.82 -178.09,102.82 z m 366.18,-211.41 v 217.19 l -188.09,108.59 -188.09,-108.59 v -217.19 l 188.09,-108.6 188.09,108.6" /><path
         id="path206"
         style="fill:#1b181a;fill-opacity:1;fill-rule:nonzero;stroke:none"
         d="m 2299.69,2332.59 178.09,102.82 178.09,-102.82 v -205.64 l -178.09,-102.82 -178.09,102.82 z m 366.18,-211.41 v 217.19 l -188.09,108.59 -188.09,-108.59 v -217.19 l 188.09,-108.6 188.09,108.6" /><path
         id="path208"
         style="fill:#1b181a;fill-opacity:1;fill-rule:nonzero;stroke:none"
         d="m 3131.88,2332.59 178.09,102.82 178.1,-102.82 v -205.64 l -178.1,-102.82 -178.09,102.82 z m 366.19,-211.41 v 217.19 l -188.1,108.59 -188.09,-108.59 v -217.19 l 188.09,-108.6 188.1,108.6" /><path
         id="path210"
         style="fill:#1b181a;fill-opacity:1;fill-rule:nonzero;stroke:none"
         d="m 3964.08,2332.59 178.09,102.82 178.09,-102.82 v -205.64 l -178.09,-102.82 -178.09,102.82 z m 366.18,-211.41 v 217.19 l -188.09,108.59 -188.09,-108.59 v -217.19 l 188.09,-108.6 188.09,108.6" /><path
         id="path212"
         style="fill:#1b181a;fill-opacity:1;fill-rule:nonzero;stroke:none"
         d="m 4786.28,2338.37 v -217.19 l 188.09,-108.6 25.63,14.8 v 11.55 l -25.63,-14.8 -178.09,102.82 v 205.64 l 178.09,102.82 25.63,-14.8 v 11.55 l -25.63,14.8 -188.09,-108.59" /><path
         id="path214"
         style="fill:#1b181a;fill-opacity:1;fill-rule:nonzero;stroke:none"
         d="M 162.457,2338.37 0,2432.16 v -11.55 l 152.457,-88.02 V 2126.95 L 0,2038.93 v -11.55 l 162.457,93.8 v 217.19" /><path
         id="path216"
         style="fill:#1b181a;fill-opacity:1;fill-rule:nonzero;stroke:none"
         d="m 4949.32,1766.73 -178.09,-102.82 -178.09,102.82 v 205.64 l 178.09,102.82 178.09,-102.82 z m -366.18,211.41 v -217.19 l 188.09,-108.59 188.09,108.59 v 217.19 l -188.09,108.6 -188.09,-108.6" /><path
         id="path218"
         style="fill:#1b181a;fill-opacity:1;fill-rule:nonzero;stroke:none"
         d="m 4176.28,1972.37 178.09,102.82 178.09,-102.82 v -205.64 l -178.09,-102.82 -178.09,102.82 z m 366.18,-211.42 v 217.19 l -188.09,108.6 -188.09,-108.6 v -217.19 l 188.09,-108.59 188.09,108.59" /><path
         id="path220"
         style="fill:#1b181a;fill-opacity:1;fill-rule:nonzero;stroke:none"
         d="m 4384.71,1613.88 178.09,102.82 178.09,-102.82 v -205.64 l -178.09,-102.82 -178.09,102.82 z m 366.18,-211.41 v 217.19 l -188.09,108.59 -188.09,-108.59 v -217.19 l 188.09,-108.6 188.09,108.6" /><path
         id="path222"
         style="fill:#1b181a;fill-opacity:1;fill-rule:nonzero;stroke:none"
         d="m 3759.42,1972.37 178.09,102.82 178.09,-102.82 v -205.64 l -178.09,-102.82 -178.09,102.82 z m 366.18,-211.42 v 217.19 l -188.09,108.6 -188.09,-108.6 v -217.19 l 188.09,-108.59 188.09,108.59" /><path
         id="path224"
         style="fill:#1b181a;fill-opacity:1;fill-rule:nonzero;stroke:none"
         d="m 3342.56,1972.37 178.09,102.82 178.09,-102.82 v -205.64 l -178.09,-102.82 -178.09,102.82 z m 366.18,-211.42 v 217.19 l -188.09,108.6 -188.09,-108.6 v -217.19 l 188.09,-108.59 188.09,108.59" /><path
         id="path226"
         style="fill:#1b181a;fill-opacity:1;fill-rule:nonzero;stroke:none"
         d="m 3550.99,1613.88 178.09,102.82 178.09,-102.82 v -205.64 l -178.09,-102.82 -178.09,102.82 z m 366.18,-211.41 v 217.19 l -188.09,108.59 -188.09,-108.59 v -217.19 l 188.09,-108.6 188.09,108.6" /><path
         id="path228"
         style="fill:#1b181a;fill-opacity:1;fill-rule:nonzero;stroke:none"
         d="m 2928.03,1972.37 178.09,102.82 178.09,-102.82 v -205.64 l -178.09,-102.82 -178.09,102.82 z m 366.18,-211.42 v 217.19 l -188.09,108.6 -188.09,-108.6 v -217.19 l 188.09,-108.59 188.09,108.59" /><path
         id="path230"
         style="fill:#1b181a;fill-opacity:1;fill-rule:nonzero;stroke:none"
         d="m 2511.17,1972.37 178.09,102.82 178.09,-102.82 v -205.64 l -178.09,-102.82 -178.09,102.82 z m 366.18,-211.42 v 217.19 l -188.09,108.6 -188.09,-108.6 v -217.19 l 188.09,-108.59 188.09,108.59" /><path
         id="path232"
         style="fill:#1b181a;fill-opacity:1;fill-rule:nonzero;stroke:none"
         d="m 2719.6,1613.88 178.09,102.82 178.09,-102.82 v -205.64 l -178.09,-102.82 -178.09,102.82 z m 366.18,-211.41 v 217.19 l -188.09,108.59 -188.09,-108.59 v -217.19 l 188.09,-108.6 188.09,108.6" /><path
         id="path234"
         style="fill:#1b181a;fill-opacity:1;fill-rule:nonzero;stroke:none"
         d="m 2094.3,1972.37 178.1,102.82 178.09,-102.82 v -205.64 l -178.09,-102.82 -178.1,102.82 z m 366.19,-211.42 v 217.19 l -188.09,108.6 -188.1,-108.6 v -217.19 l 188.1,-108.59 188.09,108.59" /><path
         id="path236"
         style="fill:#1b181a;fill-opacity:1;fill-rule:nonzero;stroke:none"
         d="m 1677.44,1972.37 178.09,102.82 178.1,-102.82 v -205.64 l -178.1,-102.82 -178.09,102.82 z m 366.19,-211.42 v 217.19 l -188.1,108.6 -188.09,-108.6 v -217.19 l 188.09,-108.59 188.1,108.59" /><path
         id="path238"
         style="fill:#1b181a;fill-opacity:1;fill-rule:nonzero;stroke:none"
         d="m 1885.87,1613.88 178.09,102.82 178.1,-102.82 v -205.64 l -178.1,-102.82 -178.09,102.82 z m 366.19,-211.41 v 217.19 l -188.1,108.59 -188.09,-108.59 v -217.19 l 188.09,-108.6 188.1,108.6" /><path
         id="path240"
         style="fill:#1b181a;fill-opacity:1;fill-rule:nonzero;stroke:none"
         d="m 1260.58,1972.37 178.09,102.82 178.1,-102.82 v -205.64 l -178.1,-102.82 -178.09,102.82 z m 366.19,-211.42 v 217.19 l -188.1,108.6 -188.09,-108.6 v -217.19 l 188.09,-108.59 188.1,108.59" /><path
         id="path242"
         style="fill:#1b181a;fill-opacity:1;fill-rule:nonzero;stroke:none"
         d="m 1052.15,1613.88 178.09,102.82 178.09,-102.82 v -205.64 l -178.09,-102.82 -178.09,102.82 z m 366.18,-211.41 v 217.19 l -188.09,108.59 -188.09,-108.59 v -217.19 l 188.09,-108.6 188.09,108.6" /><path
         id="path244"
         style="fill:#1b181a;fill-opacity:1;fill-rule:nonzero;stroke:none"
         d="m 843.723,1972.37 178.087,102.82 178.09,-102.82 V 1766.73 L 1021.81,1663.91 843.723,1766.73 Z M 1209.9,1760.95 v 217.19 l -188.09,108.6 -188.087,-108.6 v -217.19 l 188.087,-108.59 188.09,108.59" /><path
         id="path246"
         style="fill:#1b181a;fill-opacity:1;fill-rule:nonzero;stroke:none"
         d="m 426.863,1972.37 178.09,102.82 178.09,-102.82 v -205.64 l -178.09,-102.82 -178.09,102.82 z m -10,-211.42 188.09,-108.59 188.09,108.59 v 217.19 l -188.09,108.6 -188.09,-108.6 v -217.19" /><path
         id="path248"
         style="fill:#1b181a;fill-opacity:1;fill-rule:nonzero;stroke:none"
         d="m 10,1972.37 178.09,102.82 178.094,-102.82 V 1766.73 L 188.09,1663.91 10,1766.73 Z m 366.184,-211.42 v 217.19 L 188.09,2086.74 0,1978.14 v -217.19 l 188.09,-108.59 188.094,108.59" /><path
         id="path250"
         style="fill:#1b181a;fill-opacity:1;fill-rule:nonzero;stroke:none"
         d="M 218.43,1613.88 396.52,1716.7 574.613,1613.88 V 1408.24 L 396.52,1305.42 218.43,1408.24 Z m 366.183,-211.41 v 217.19 L 396.52,1728.25 208.43,1619.66 v -217.19 l 188.09,-108.6 188.093,108.6" /><path
         id="path252"
         style="fill:#1b181a;fill-opacity:1;fill-rule:nonzero;stroke:none"
         d="m 635.293,1613.88 178.09,102.82 178.09,-102.82 v -205.64 l -178.09,-102.82 -178.09,102.82 z m 366.177,-211.41 v 217.19 l -188.087,108.59 -188.09,-108.59 v -217.19 l 188.09,-108.6 188.087,108.6" /><path
         id="path254"
         style="fill:#1b181a;fill-opacity:1;fill-rule:nonzero;stroke:none"
         d="m 1467.49,1613.88 178.09,102.82 178.09,-102.82 v -205.64 l -178.09,-102.82 -178.09,102.82 z m 366.18,-211.41 v 217.19 l -188.09,108.59 -188.09,-108.59 v -217.19 l 188.09,-108.6 188.09,108.6" /><path
         id="path256"
         style="fill:#1b181a;fill-opacity:1;fill-rule:nonzero;stroke:none"
         d="m 2299.69,1613.88 178.09,102.82 178.09,-102.82 v -205.64 l -178.09,-102.82 -178.09,102.82 z m 366.18,-211.41 v 217.19 l -188.09,108.59 -188.09,-108.59 v -217.19 l 188.09,-108.6 188.09,108.6" /><path
         id="path258"
         style="fill:#1b181a;fill-opacity:1;fill-rule:nonzero;stroke:none"
         d="m 3131.88,1613.88 178.09,102.82 178.1,-102.82 v -205.64 l -178.1,-102.82 -178.09,102.82 z m 366.19,-211.41 v 217.19 l -188.1,108.59 -188.09,-108.59 v -217.19 l 188.09,-108.6 188.1,108.6" /><path
         id="path260"
         style="fill:#1b181a;fill-opacity:1;fill-rule:nonzero;stroke:none"
         d="m 3964.08,1613.88 178.09,102.82 178.09,-102.82 v -205.64 l -178.09,-102.82 -178.09,102.82 z m 366.18,-211.41 v 217.19 l -188.09,108.59 -188.09,-108.59 v -217.19 l 188.09,-108.6 188.09,108.6" /><path
         id="path262"
         style="fill:#1b181a;fill-opacity:1;fill-rule:nonzero;stroke:none"
         d="m 4786.28,1619.66 v -217.19 l 188.09,-108.6 25.63,14.8 v 11.55 l -25.63,-14.8 -178.09,102.82 v 205.64 l 178.09,102.82 25.63,-14.79 v 11.54 l -25.63,14.8 -188.09,-108.59" /><path
         id="path264"
         style="fill:#1b181a;fill-opacity:1;fill-rule:nonzero;stroke:none"
         d="M 162.457,1619.66 0,1713.45 v -11.54 l 152.457,-88.03 V 1408.24 L 0,1320.22 v -11.55 l 162.457,93.8 v 217.19" /><path
         id="path266"
         style="fill:#1b181a;fill-opacity:1;fill-rule:nonzero;stroke:none"
         d="M 4949.32,1058.02 4771.23,955.199 4593.14,1058.02 v 205.64 l 178.09,102.82 178.09,-102.82 z m -366.18,211.41 v -217.19 l 188.09,-108.592 188.09,108.592 v 217.19 l -188.09,108.6 -188.09,-108.6" /><path
         id="path268"
         style="fill:#1b181a;fill-opacity:1;fill-rule:nonzero;stroke:none"
         d="m 4176.28,1263.66 178.09,102.82 178.09,-102.82 V 1058.02 L 4354.37,955.199 4176.28,1058.02 Z m 366.18,-211.42 v 217.19 l -188.09,108.6 -188.09,-108.6 v -217.19 l 188.09,-108.592 188.09,108.592" /><path
         id="path270"
         style="fill:#1b181a;fill-opacity:1;fill-rule:nonzero;stroke:none"
         d="M 4740.89,709.531 4562.8,606.711 4384.71,709.531 V 915.18 L 4562.8,1018 4740.89,915.18 Z m 10,211.418 L 4562.8,1029.54 4374.71,920.949 V 703.762 l 188.09,-108.59 188.09,108.59 v 217.187" /><path
         id="path272"
         style="fill:#1b181a;fill-opacity:1;fill-rule:nonzero;stroke:none"
         d="m 3759.42,1263.66 178.09,102.82 178.09,-102.82 V 1058.02 L 3937.51,955.199 3759.42,1058.02 Z m 366.18,-211.42 v 217.19 l -188.09,108.6 -188.09,-108.6 v -217.19 l 188.09,-108.592 188.09,108.592" /><path
         id="path274"
         style="fill:#1b181a;fill-opacity:1;fill-rule:nonzero;stroke:none"
         d="m 3342.56,1263.66 178.09,102.82 178.09,-102.82 V 1058.02 L 3520.65,955.199 3342.56,1058.02 Z m 366.18,-211.42 v 217.19 l -188.09,108.6 -188.09,-108.6 v -217.19 l 188.09,-108.592 188.09,108.592" /><path
         id="path276"
         style="fill:#1b181a;fill-opacity:1;fill-rule:nonzero;stroke:none"
         d="m 3907.17,709.531 -178.09,-102.82 -178.09,102.82 V 915.18 L 3729.08,1018 3907.17,915.18 Z m 10,211.418 -188.09,108.591 -188.09,-108.591 V 703.762 l 188.09,-108.59 188.09,108.59 v 217.187" /><path
         id="path278"
         style="fill:#1b181a;fill-opacity:1;fill-rule:nonzero;stroke:none"
         d="m 2928.03,1263.66 178.09,102.82 178.09,-102.82 V 1058.02 L 3106.12,955.199 2928.03,1058.02 Z m 366.18,-211.42 v 217.19 l -188.09,108.6 -188.09,-108.6 v -217.19 l 188.09,-108.592 188.09,108.592" /><path
         id="path280"
         style="fill:#1b181a;fill-opacity:1;fill-rule:nonzero;stroke:none"
         d="m 2511.17,1263.66 178.09,102.82 178.09,-102.82 V 1058.02 L 2689.26,955.199 2511.17,1058.02 Z m 366.18,-211.42 v 217.19 l -188.09,108.6 -188.09,-108.6 v -217.19 l 188.09,-108.592 188.09,108.592" /><path
         id="path282"
         style="fill:#1b181a;fill-opacity:1;fill-rule:nonzero;stroke:none"
         d="M 3075.78,709.531 2897.69,606.711 2719.6,709.531 V 915.18 L 2897.69,1018 3075.78,915.18 Z m 10,211.418 L 2897.69,1029.54 2709.6,920.949 V 703.762 l 188.09,-108.59 188.09,108.59 v 217.187" /><path
         id="path284"
         style="fill:#1b181a;fill-opacity:1;fill-rule:nonzero;stroke:none"
         d="m 2094.3,1263.66 178.1,102.82 178.09,-102.82 V 1058.02 L 2272.4,955.199 2094.3,1058.02 Z m 366.19,-211.42 v 217.19 l -188.09,108.6 -188.1,-108.6 v -217.19 l 188.1,-108.592 188.09,108.592" /><path
         id="path286"
         style="fill:#1b181a;fill-opacity:1;fill-rule:nonzero;stroke:none"
         d="m 1677.44,1263.66 178.09,102.82 178.1,-102.82 v -205.64 l -178.1,-102.821 -178.09,102.821 z m 366.19,-211.42 v 217.19 l -188.1,108.6 -188.09,-108.6 v -217.19 l 188.09,-108.592 188.1,108.592" /><path
         id="path288"
         style="fill:#1b181a;fill-opacity:1;fill-rule:nonzero;stroke:none"
         d="m 2242.06,709.531 -178.1,-102.82 -178.09,102.82 V 915.18 l 178.09,102.82 178.1,-102.82 z m 10,211.418 -188.1,108.591 -188.09,-108.591 V 703.762 l 188.09,-108.59 188.1,108.59 v 217.187" /><path
         id="path290"
         style="fill:#1b181a;fill-opacity:1;fill-rule:nonzero;stroke:none"
         d="m 1260.58,1263.66 178.09,102.82 178.1,-102.82 v -205.64 l -178.1,-102.821 -178.09,102.821 z m 366.19,-211.42 v 217.19 l -188.1,108.6 -188.09,-108.6 v -217.19 l 188.09,-108.592 188.1,108.592" /><path
         id="path292"
         style="fill:#1b181a;fill-opacity:1;fill-rule:nonzero;stroke:none"
         d="m 1408.33,709.531 -178.09,-102.82 -178.09,102.82 V 915.18 L 1230.24,1018 1408.33,915.18 Z m 10,211.418 -188.09,108.591 -188.09,-108.591 V 703.762 l 188.09,-108.59 188.09,108.59 v 217.187" /><path
         id="path294"
         style="fill:#1b181a;fill-opacity:1;fill-rule:nonzero;stroke:none"
         d="m 843.723,1263.66 178.087,102.82 178.09,-102.82 V 1058.02 L 1021.81,955.199 843.723,1058.02 Z M 1209.9,1052.24 v 217.19 l -188.09,108.6 -188.087,-108.6 V 1052.24 L 1021.81,943.648 1209.9,1052.24" /><path
         id="path296"
         style="fill:#1b181a;fill-opacity:1;fill-rule:nonzero;stroke:none"
         d="m 426.863,1263.66 178.09,102.82 178.09,-102.82 V 1058.02 L 604.953,955.199 426.863,1058.02 Z m -10,-211.42 188.09,-108.592 188.09,108.592 v 217.19 l -188.09,108.6 -188.09,-108.6 v -217.19" /><path
         id="path298"
         style="fill:#1b181a;fill-opacity:1;fill-rule:nonzero;stroke:none"
         d="m 10,1263.66 178.09,102.82 178.094,-102.82 V 1058.02 L 188.09,955.199 10,1058.02 Z m 366.184,-211.42 v 217.19 L 188.09,1378.03 0,1269.43 V 1052.24 L 188.09,943.648 376.184,1052.24" /><path
         id="path300"
         style="fill:#1b181a;fill-opacity:1;fill-rule:nonzero;stroke:none"
         d="M 574.613,709.531 396.52,606.711 218.43,709.531 V 915.18 L 396.52,1018 574.613,915.18 Z m 10,211.418 L 396.52,1029.54 208.43,920.949 V 703.762 l 188.09,-108.59 188.093,108.59 v 217.187" /><path
         id="path302"
         style="fill:#1b181a;fill-opacity:1;fill-rule:nonzero;stroke:none"
         d="m 991.473,709.531 -178.09,-102.82 -178.09,102.82 V 915.18 L 813.383,1018 991.473,915.18 Z M 1001.47,920.949 813.383,1029.54 625.293,920.949 V 703.762 l 188.09,-108.59 188.087,108.59 v 217.187" /><path
         id="path304"
         style="fill:#1b181a;fill-opacity:1;fill-rule:nonzero;stroke:none"
         d="m 1823.67,709.531 -178.09,-102.82 -178.09,102.82 V 915.18 L 1645.58,1018 1823.67,915.18 Z m 10,211.418 -188.09,108.591 -188.09,-108.591 V 703.762 l 188.09,-108.59 188.09,108.59 v 217.187" /><path
         id="path306"
         style="fill:#1b181a;fill-opacity:1;fill-rule:nonzero;stroke:none"
         d="m 2655.87,709.531 -178.09,-102.82 -178.09,102.82 V 915.18 L 2477.78,1018 2655.87,915.18 Z m 10,211.418 -188.09,108.591 -188.09,-108.591 V 703.762 l 188.09,-108.59 188.09,108.59 v 217.187" /><path
         id="path308"
         style="fill:#1b181a;fill-opacity:1;fill-rule:nonzero;stroke:none"
         d="m 3488.07,709.531 -178.1,-102.82 -178.09,102.82 V 915.18 l 178.09,102.82 178.1,-102.82 z m 10,211.418 -188.1,108.591 -188.09,-108.591 V 703.762 l 188.09,-108.59 188.1,108.59 v 217.187" /><path
         id="path310"
         style="fill:#1b181a;fill-opacity:1;fill-rule:nonzero;stroke:none"
         d="m 4320.26,709.531 -178.09,-102.82 -178.09,102.82 V 915.18 L 4142.17,1018 4320.26,915.18 Z m 10,211.418 -188.09,108.591 -188.09,-108.591 V 703.762 l 188.09,-108.59 188.09,108.59 v 217.187" /><path
         id="path312"
         style="fill:#1b181a;fill-opacity:1;fill-rule:nonzero;stroke:none"
         d="M 4786.28,920.949 V 703.762 l 188.09,-108.59 25.63,14.797 v 11.543 l -25.63,-14.801 -178.09,102.82 V 915.18 L 4974.37,1018 5000,1003.2 v 11.54 l -25.63,14.8 -188.09,-108.591" /><path
         id="path314"
         style="fill:#1b181a;fill-opacity:1;fill-rule:nonzero;stroke:none"
         d="M 162.457,920.949 0,1014.74 V 1003.2 L 152.457,915.18 V 709.531 L 0,621.512 v -11.543 l 162.457,93.793 v 217.187" /><path
         id="path316"
         style="fill:#1b181a;fill-opacity:1;fill-rule:nonzero;stroke:none"
         d="M 4949.32,359.309 4771.23,256.488 4593.14,359.309 v 205.64 L 4771.23,667.77 4949.32,564.949 Z M 4583.14,570.73 V 353.539 l 188.09,-108.598 188.09,108.598 V 570.73 L 4771.23,679.32 4583.14,570.73" /><path
         id="path318"
         style="fill:#1b181a;fill-opacity:1;fill-rule:nonzero;stroke:none"
         d="M 4532.46,359.309 4354.37,256.488 4176.28,359.309 v 205.64 L 4354.37,667.77 4532.46,564.949 Z M 4166.28,570.73 V 353.539 l 188.09,-108.598 188.09,108.598 V 570.73 L 4354.37,679.32 4166.28,570.73" /><path
         id="path320"
         style="fill:#1b181a;fill-opacity:1;fill-rule:nonzero;stroke:none"
         d="M 4115.6,359.309 3937.51,256.488 3759.42,359.309 v 205.64 L 3937.51,667.77 4115.6,564.949 Z M 3749.42,570.73 V 353.539 L 3937.51,244.941 4125.6,353.539 V 570.73 L 3937.51,679.32 3749.42,570.73" /><path
         id="path322"
         style="fill:#1b181a;fill-opacity:1;fill-rule:nonzero;stroke:none"
         d="M 3698.74,359.309 3520.65,256.488 3342.56,359.309 v 205.64 L 3520.65,667.77 3698.74,564.949 Z M 3332.56,570.73 V 353.539 l 188.09,-108.598 188.09,108.598 V 570.73 L 3520.65,679.32 3332.56,570.73" /><path
         id="path324"
         style="fill:#1b181a;fill-opacity:1;fill-rule:nonzero;stroke:none"
         d="M 3284.21,359.309 3106.12,256.488 2928.03,359.309 v 205.64 L 3106.12,667.77 3284.21,564.949 Z M 2918.03,570.73 V 353.539 l 188.09,-108.598 188.09,108.598 V 570.73 L 3106.12,679.32 2918.03,570.73" /><path
         id="path326"
         style="fill:#1b181a;fill-opacity:1;fill-rule:nonzero;stroke:none"
         d="M 2867.35,359.309 2689.26,256.488 2511.17,359.309 v 205.64 L 2689.26,667.77 2867.35,564.949 Z M 2501.17,570.73 V 353.539 l 188.09,-108.598 188.09,108.598 V 570.73 L 2689.26,679.32 2501.17,570.73" /><path
         id="path328"
         style="fill:#1b181a;fill-opacity:1;fill-rule:nonzero;stroke:none"
         d="M 2450.49,359.309 2272.4,256.488 2094.3,359.309 v 205.64 L 2272.4,667.77 2450.49,564.949 Z M 2084.3,570.73 V 353.539 l 188.1,-108.598 188.09,108.598 V 570.73 L 2272.4,679.32 2084.3,570.73" /><path
         id="path330"
         style="fill:#1b181a;fill-opacity:1;fill-rule:nonzero;stroke:none"
         d="m 2033.63,359.309 -178.1,-102.821 -178.09,102.821 v 205.64 l 178.09,102.821 178.1,-102.821 z M 1667.44,570.73 V 353.539 l 188.09,-108.598 188.1,108.598 V 570.73 l -188.1,108.59 -188.09,-108.59" /><path
         id="path332"
         style="fill:#1b181a;fill-opacity:1;fill-rule:nonzero;stroke:none"
         d="m 1616.77,359.309 -178.1,-102.821 -178.09,102.821 v 205.64 l 178.09,102.821 178.1,-102.821 z M 1250.58,570.73 V 353.539 l 188.09,-108.598 188.1,108.598 V 570.73 l -188.1,108.59 -188.09,-108.59" /><path
         id="path334"
         style="fill:#1b181a;fill-opacity:1;fill-rule:nonzero;stroke:none"
         d="M 1199.9,359.309 1021.81,256.488 843.723,359.309 v 205.64 L 1021.81,667.77 1199.9,564.949 Z M 833.723,570.73 V 353.539 L 1021.81,244.941 1209.9,353.539 V 570.73 L 1021.81,679.32 833.723,570.73" /><path
         id="path336"
         style="fill:#1b181a;fill-opacity:1;fill-rule:nonzero;stroke:none"
         d="M 783.043,359.309 604.953,256.488 426.863,359.309 v 205.64 L 604.953,667.77 783.043,564.949 Z M 416.863,570.73 V 353.539 l 188.09,-108.598 188.09,108.598 V 570.73 L 604.953,679.32 416.863,570.73" /><path
         id="path338"
         style="fill:#1b181a;fill-opacity:1;fill-rule:nonzero;stroke:none"
         d="M 10,564.949 188.09,667.77 366.184,564.949 V 359.309 L 188.09,256.488 10,359.309 Z M 376.184,353.539 V 570.73 L 188.09,679.32 0,570.73 V 353.539 L 188.09,244.941 376.184,353.539" /><path
         id="path340"
         style="fill:#1b181a;fill-opacity:1;fill-rule:nonzero;stroke:none"
         d="m 4562.8,4886.46 188.09,108.59 v 4.95 h -11.43 l -176.66,-102 -176.66,102 h -11.43 v -4.95 l 188.09,-108.59" /><path
         id="path342"
         style="fill:#1b181a;fill-opacity:1;fill-rule:nonzero;stroke:none"
         d="m 3729.08,4886.46 188.09,108.59 v 4.95 h -11.43 l -176.66,-102 -176.66,102 h -11.43 v -4.95 l 188.09,-108.59" /><path
         id="path344"
         style="fill:#1b181a;fill-opacity:1;fill-rule:nonzero;stroke:none"
         d="m 2897.69,4886.46 188.09,108.59 v 4.95 h -11.44 l -176.65,-102 -176.66,102 h -11.43 v -4.95 l 188.09,-108.59" /><path
         id="path346"
         style="fill:#1b181a;fill-opacity:1;fill-rule:nonzero;stroke:none"
         d="m 2063.96,4886.46 188.1,108.59 v 4.95 h -11.44 l -176.66,-102 -176.65,102 h -11.44 v -4.95 l 188.09,-108.59" /><path
         id="path348"
         style="fill:#1b181a;fill-opacity:1;fill-rule:nonzero;stroke:none"
         d="m 1230.24,4886.46 188.09,108.59 v 4.95 h -11.43 l -176.66,-102 -176.65,102 h -11.44 v -4.95 l 188.09,-108.59" /><path
         id="path350"
         style="fill:#1b181a;fill-opacity:1;fill-rule:nonzero;stroke:none"
         d="m 396.52,4886.46 188.093,108.59 V 5000 H 573.18 L 396.52,4898 219.863,5000 H 208.43 v -4.95 l 188.09,-108.59" /><path
         id="path352"
         style="fill:#1b181a;fill-opacity:1;fill-rule:nonzero;stroke:none"
         d="m 813.383,4886.46 188.087,108.59 V 5000 H 990.039 L 813.383,4898 636.727,5000 h -11.434 v -4.95 l 188.09,-108.59" /><path
         id="path354"
         style="fill:#1b181a;fill-opacity:1;fill-rule:nonzero;stroke:none"
         d="m 1645.58,4886.46 188.09,108.59 v 4.95 h -11.43 l -176.66,-102 -176.66,102 h -11.43 v -4.95 l 188.09,-108.59" /><path
         id="path356"
         style="fill:#1b181a;fill-opacity:1;fill-rule:nonzero;stroke:none"
         d="m 2477.78,4886.46 188.09,108.59 v 4.95 h -11.44 l -176.65,-102 -176.66,102 h -11.43 v -4.95 l 188.09,-108.59" /><path
         id="path358"
         style="fill:#1b181a;fill-opacity:1;fill-rule:nonzero;stroke:none"
         d="m 3309.97,4886.46 188.1,108.59 v 4.95 h -11.44 l -176.66,-102 -176.65,102 h -11.44 v -4.95 l 188.09,-108.59" /><path
         id="path360"
         style="fill:#1b181a;fill-opacity:1;fill-rule:nonzero;stroke:none"
         d="m 4142.17,4886.46 188.09,108.59 v 4.95 h -11.43 l -176.66,-102 -176.66,102 h -11.43 v -4.95 l 188.09,-108.59" /><path
         id="path362"
         style="fill:#1b181a;fill-opacity:1;fill-rule:nonzero;stroke:none"
         d="m 4974.37,4898 -176.66,102 h -11.43 v -4.95 l 188.09,-108.59 25.63,14.8 v 11.54 l -25.63,-14.8" /><path
         id="path364"
         style="fill:#1b181a;fill-opacity:1;fill-rule:nonzero;stroke:none"
         d="M 162.457,5000 H 151.023 L 0,4912.8 v -11.54 l 162.457,93.79 v 4.95" /><path
         id="path366"
         style="fill:#1b181a;fill-opacity:1;fill-rule:nonzero;stroke:none"
         d="M 4562.8,320.84 4374.71,212.242 V 0 h 11.43 l -1.43,0.832031 V 206.469 l 178.09,102.82 178.09,-102.82 V 0.832031 L 4739.46,0 h 11.43 V 212.242 L 4562.8,320.84" /><path
         id="path368"
         style="fill:#1b181a;fill-opacity:1;fill-rule:nonzero;stroke:none"
         d="M 3729.08,320.84 3540.99,212.242 V 0 h 11.43 l -1.43,0.832031 V 206.469 l 178.09,102.82 178.09,-102.82 V 0.832031 L 3905.74,0 h 11.43 V 212.242 L 3729.08,320.84" /><path
         id="path370"
         style="fill:#1b181a;fill-opacity:1;fill-rule:nonzero;stroke:none"
         d="M 2897.69,320.84 2709.6,212.242 V 0 h 11.43 l -1.43,0.832031 V 206.469 l 178.09,102.82 178.09,-102.82 V 0.832031 L 3074.34,0 h 11.44 V 212.242 L 2897.69,320.84" /><path
         id="path372"
         style="fill:#1b181a;fill-opacity:1;fill-rule:nonzero;stroke:none"
         d="M 2063.96,320.84 1875.87,212.242 V 0 h 11.44 l -1.44,0.832031 V 206.469 l 178.09,102.82 178.1,-102.82 V 0.832031 L 2240.62,0 h 11.44 v 212.242 l -188.1,108.598" /><path
         id="path374"
         style="fill:#1b181a;fill-opacity:1;fill-rule:nonzero;stroke:none"
         d="M 1230.24,320.84 1042.15,212.242 V 0 h 11.44 l -1.44,0.832031 V 206.469 l 178.09,102.82 178.09,-102.82 V 0.832031 L 1406.9,0 h 11.43 V 212.242 L 1230.24,320.84" /><path
         id="path376"
         style="fill:#1b181a;fill-opacity:1;fill-rule:nonzero;stroke:none"
         d="M 396.52,320.84 208.43,212.242 V 0 h 11.433 L 218.43,0.832031 V 206.469 l 178.09,102.82 178.093,-102.82 V 0.832031 L 573.18,0 h 11.433 V 212.242 L 396.52,320.84" /><path
         id="path378"
         style="fill:#1b181a;fill-opacity:1;fill-rule:nonzero;stroke:none"
         d="M 813.383,320.84 625.293,212.242 V 0 h 11.434 l -1.434,0.832031 V 206.469 l 178.09,102.82 178.09,-102.82 V 0.832031 L 990.039,0 h 11.431 V 212.242 L 813.383,320.84" /><path
         id="path380"
         style="fill:#1b181a;fill-opacity:1;fill-rule:nonzero;stroke:none"
         d="M 1645.58,320.84 1457.49,212.242 V 0 h 11.43 l -1.43,0.832031 V 206.469 l 178.09,102.82 178.09,-102.82 V 0.832031 L 1822.24,0 h 11.43 V 212.242 L 1645.58,320.84" /><path
         id="path382"
         style="fill:#1b181a;fill-opacity:1;fill-rule:nonzero;stroke:none"
         d="M 2477.78,320.84 2289.69,212.242 V 0 h 11.43 l -1.43,0.832031 V 206.469 l 178.09,102.82 178.09,-102.82 V 0.832031 L 2654.43,0 h 11.44 V 212.242 L 2477.78,320.84" /><path
         id="path384"
         style="fill:#1b181a;fill-opacity:1;fill-rule:nonzero;stroke:none"
         d="M 3309.97,320.84 3121.88,212.242 V 0 h 11.44 l -1.44,0.832031 V 206.469 l 178.09,102.82 178.1,-102.82 V 0.832031 L 3486.63,0 h 11.44 v 212.242 l -188.1,108.598" /><path
         id="path386"
         style="fill:#1b181a;fill-opacity:1;fill-rule:nonzero;stroke:none"
         d="M 4142.17,320.84 3954.08,212.242 V 0 h 11.43 l -1.43,0.832031 V 206.469 l 178.09,102.82 178.09,-102.82 V 0.832031 L 4318.83,0 h 11.43 V 212.242 L 4142.17,320.84" /><path
         id="path388"
         style="fill:#1b181a;fill-opacity:1;fill-rule:nonzero;stroke:none"
         d="M 4786.28,212.242 V 0 h 11.43 l -1.43,0.832031 V 206.469 l 178.09,102.82 25.63,-14.797 v 11.547 l -25.63,14.801 -188.09,-108.598" /><path
         id="path390"
         style="fill:#1b181a;fill-opacity:1;fill-rule:nonzero;stroke:none"
         d="M 0,306.039 V 294.492 L 152.457,206.469 V 0.832031 L 151.023,0 h 11.434 V 212.242 L 0,306.039" /></g></g></svg>