<svg width="1158" height="686" fill="none" xmlns="http://www.w3.org/2000/svg"><g opacity=".28" clip-path="url(#clip0)" stroke="#000" stroke-opacity=".1" stroke-width="3.407"><path d="M1.703 18.941l9.9 17.246H31.4L41.3 18.94 31.401 1.695H11.603l-9.9 17.246zM31.4 36.187l9.9 17.245h19.798l9.9-17.245-9.9-17.246H41.3l-9.9 17.246z"/><path d="M61.099 18.941l9.899 17.246h19.798l9.899-17.246-9.899-17.246H70.998l-9.9 17.246z"/><path d="M90.796 36.187l9.899 17.245h19.798l9.899-17.245-9.899-17.246h-19.798l-9.9 17.246z"/><path d="M120.493 18.941l9.899 17.246h19.798l9.899-17.246-9.899-17.246h-19.798l-9.899 17.246z"/><path d="M150.188 36.187l9.899 17.245h19.799l9.899-17.245-9.899-17.246h-19.799l-9.899 17.246zM179.89 18.941l9.899 17.246h19.799l9.899-17.246-9.899-17.246h-19.799l-9.899 17.246z"/><path d="M209.58 36.187l9.899 17.245h19.798l9.899-17.245-9.899-17.246h-19.798l-9.899 17.246zM239.282 18.941l9.899 17.246h19.798l9.899-17.246-9.899-17.246h-19.798l-9.899 17.246zM268.984 36.187l9.899 17.245h19.798l9.899-17.245-9.899-17.246h-19.798l-9.899 17.246z"/><path d="M298.673 18.941l9.899 17.246h19.799l9.899-17.246-9.899-17.246h-19.799l-9.899 17.246zM328.375 36.187l9.899 17.245h19.799l9.899-17.245-9.899-17.246h-19.799l-9.899 17.246zM358.077 18.941l9.899 17.246h19.798l9.9-17.246-9.9-17.246h-19.798l-9.899 17.246z"/><path d="M387.767 36.187l9.899 17.245h19.798l9.899-17.245-9.899-17.246h-19.798l-9.899 17.246zM417.469 18.941l9.899 17.246h19.798l9.899-17.246-9.899-17.246h-19.798l-9.899 17.246zM447.17 36.187l9.899 17.245h19.799l9.899-17.245-9.899-17.246h-19.799l-9.899 17.246z"/><path d="M476.86 18.941l9.899 17.246h19.798l9.9-17.246-9.9-17.246h-19.798l-9.899 17.246zM506.562 36.187l9.899 17.245h19.798l9.899-17.245-9.899-17.246h-19.798l-9.899 17.246zM536.264 18.941l9.899 17.246h19.798l9.899-17.246-9.899-17.246h-19.798l-9.899 17.246z"/><path d="M565.953 36.187l9.899 17.245h19.799l9.899-17.245-9.899-17.246h-19.799l-9.899 17.246zM595.655 18.941l9.899 17.246h19.799l9.899-17.246-9.899-17.246h-19.799l-9.899 17.246zM625.357 36.187l9.899 17.245h19.799l9.899-17.245-9.899-17.246h-19.799l-9.899 17.246z"/><path d="M655.047 18.941l9.899 17.246h19.798l9.899-17.246-9.899-17.246h-19.798l-9.899 17.246zM684.749 36.187l9.899 17.245h19.798l9.899-17.245-9.899-17.246h-19.798l-9.899 17.246zM714.45 18.941l9.9 17.246h19.798l9.899-17.246-9.899-17.246H724.35l-9.9 17.246z"/><path d="M744.14 36.187l9.899 17.245h19.799l9.899-17.245-9.899-17.246h-19.799l-9.899 17.246zM773.842 18.941l9.899 17.246h19.798l9.9-17.246-9.9-17.246h-19.798l-9.899 17.246z"/><path d="M803.532 36.187l9.899 17.245h19.798l9.899-17.245-9.899-17.246h-19.798l-9.899 17.246zM833.234 18.941l9.899 17.246h19.798l9.899-17.246-9.899-17.246h-19.798l-9.899 17.246zM862.935 36.187l9.899 17.245h19.799l9.899-17.245-9.899-17.246h-19.799l-9.899 17.246z"/><path d="M892.625 18.941l9.899 17.246h19.799l9.899-17.246-9.899-17.246h-19.799l-9.899 17.246zM922.327 36.187l9.899 17.245h19.798l9.899-17.245-9.899-17.246h-19.798l-9.899 17.246zM952.029 18.941l9.899 17.246h19.798l9.899-17.246-9.899-17.246h-19.798l-9.899 17.246z"/><path d="M981.718 36.187l9.899 17.245h19.803l9.89-17.245-9.89-17.246h-19.803l-9.899 17.246zM1011.42 18.941l9.9 17.246h19.8l9.9-17.246-9.9-17.246h-19.8l-9.9 17.246z"/><path d="M1041.12 36.187l9.9 17.245h19.8l9.9-17.245-9.9-17.246h-19.8l-9.9 17.246z"/><path d="M1070.81 18.941l9.9 17.246h19.8l9.9-17.246-9.9-17.246h-19.8l-9.9 17.246z"/><path d="M1100.51 36.187l9.9 17.245h19.8l9.9-17.245-9.9-17.246h-19.8l-9.9 17.246zM1.703 53.432l9.9 17.246H31.4L41.3 53.432l-9.899-17.245H11.603l-9.9 17.245zM31.4 70.679l9.9 17.245h19.798l9.9-17.245-9.9-17.246H41.3L31.4 70.68zM61.099 53.432l9.899 17.246h19.798l9.899-17.246-9.899-17.245H70.998l-9.9 17.245z"/><path d="M90.796 70.679l9.899 17.245h19.798l9.899-17.245-9.899-17.246h-19.798l-9.9 17.246zM120.493 53.432l9.899 17.246h19.798l9.899-17.246-9.899-17.245h-19.798l-9.899 17.245z"/><path d="M150.188 70.679l9.899 17.245h19.799l9.899-17.245-9.899-17.246h-19.799l-9.899 17.246zM179.89 53.432l9.899 17.246h19.799l9.899-17.246-9.899-17.245h-19.799l-9.899 17.245z"/><path d="M209.58 70.679l9.899 17.245h19.798l9.899-17.245-9.899-17.246h-19.798L209.58 70.68zM239.282 53.432l9.899 17.246h19.798l9.899-17.246-9.899-17.245h-19.798l-9.899 17.245zM268.984 70.679l9.899 17.245h19.798l9.899-17.245-9.899-17.246h-19.798l-9.899 17.246z"/><path d="M298.673 53.432l9.899 17.246h19.799l9.899-17.246-9.899-17.245h-19.799l-9.899 17.245zM328.375 70.679l9.899 17.245h19.799l9.899-17.245-9.899-17.246h-19.799l-9.899 17.246zM358.077 53.432l9.899 17.246h19.798l9.9-17.246-9.9-17.245h-19.798l-9.899 17.245z"/><path d="M387.767 70.679l9.899 17.245h19.798l9.899-17.245-9.899-17.246h-19.798l-9.899 17.246zM417.469 53.432l9.899 17.246h19.798l9.899-17.246-9.899-17.245h-19.798l-9.899 17.245zM447.17 70.679l9.899 17.245h19.799l9.899-17.245-9.899-17.246h-19.799L447.17 70.68z"/><path d="M476.86 53.432l9.899 17.246h19.798l9.9-17.246-9.9-17.245h-19.798l-9.899 17.245zM506.562 70.679l9.899 17.245h19.798l9.899-17.245-9.899-17.246h-19.798l-9.899 17.246zM536.264 53.432l9.899 17.246h19.798l9.899-17.246-9.899-17.245h-19.798l-9.899 17.245z"/><path d="M565.953 70.679l9.899 17.245h19.799l9.899-17.245-9.899-17.246h-19.799l-9.899 17.246zM595.655 53.432l9.899 17.246h19.799l9.899-17.246-9.899-17.245h-19.799l-9.899 17.245zM625.357 70.679l9.899 17.245h19.799l9.899-17.245-9.899-17.246h-19.799l-9.899 17.246z"/><path d="M655.047 53.432l9.899 17.246h19.798l9.899-17.246-9.899-17.245h-19.798l-9.899 17.245zM684.749 70.679l9.899 17.245h19.798l9.899-17.245-9.899-17.246h-19.798l-9.899 17.246zM714.45 53.432l9.9 17.246h19.798l9.899-17.246-9.899-17.245H724.35l-9.9 17.245z"/><path d="M744.14 70.679l9.899 17.245h19.799l9.899-17.245-9.899-17.246h-19.799L744.14 70.68zM773.842 53.432l9.899 17.246h19.798l9.9-17.246-9.9-17.245h-19.798l-9.899 17.245z"/><path d="M803.532 70.679l9.899 17.245h19.798l9.899-17.245-9.899-17.246h-19.798l-9.899 17.246zM833.234 53.432l9.899 17.246h19.798l9.899-17.246-9.899-17.245h-19.798l-9.899 17.245zM862.935 70.679l9.899 17.245h19.799l9.899-17.245-9.899-17.246h-19.799l-9.899 17.246z"/><path d="M892.625 53.432l9.899 17.246h19.799l9.899-17.246-9.899-17.245h-19.799l-9.899 17.245zM922.327 70.679l9.899 17.245h19.798l9.899-17.245-9.899-17.246h-19.798l-9.899 17.246zM952.029 53.432l9.899 17.246h19.798l9.899-17.246-9.899-17.245h-19.798l-9.899 17.245z"/><path d="M981.718 70.679l9.899 17.245h19.803l9.89-17.245-9.89-17.246h-19.803l-9.899 17.246zM1011.42 53.432l9.9 17.246h19.8l9.9-17.246-9.9-17.245h-19.8l-9.9 17.245zM1041.12 70.679l9.9 17.245h19.8l9.9-17.245-9.9-17.246h-19.8l-9.9 17.246z"/><path d="M1070.81 53.432l9.9 17.246h19.8l9.9-17.246-9.9-17.245h-19.8l-9.9 17.245zM1100.51 70.679l9.9 17.245h19.8l9.9-17.245-9.9-17.246h-19.8l-9.9 17.246zM1.703 87.924l9.9 17.246H31.4L41.3 87.924 31.401 70.68H11.603l-9.9 17.245z"/><path d="M31.4 105.17l9.9 17.246h19.798l9.9-17.246-9.9-17.246H41.3l-9.9 17.246z"/><path d="M61.099 87.924l9.899 17.246h19.798l9.899-17.246-9.899-17.245H70.998l-9.9 17.245z"/><path d="M90.796 105.17l9.899 17.246h19.798l9.899-17.246-9.899-17.246h-19.798l-9.9 17.246z"/><path d="M120.493 87.924l9.899 17.246h19.798l9.899-17.246-9.899-17.245h-19.798l-9.899 17.245z"/><path d="M150.188 105.17l9.899 17.246h19.799l9.899-17.246-9.899-17.246h-19.799l-9.899 17.246zM179.89 87.924l9.899 17.246h19.799l9.899-17.246-9.899-17.245h-19.799l-9.899 17.245z"/><path d="M209.58 105.17l9.899 17.246h19.798l9.899-17.246-9.899-17.246h-19.798l-9.899 17.246zM239.282 87.924l9.899 17.246h19.798l9.899-17.246-9.899-17.245h-19.798l-9.899 17.245zM268.984 105.17l9.899 17.246h19.798l9.899-17.246-9.899-17.246h-19.798l-9.899 17.246z"/><path d="M298.673 87.924l9.899 17.246h19.799l9.899-17.246-9.899-17.245h-19.799l-9.899 17.245zM328.375 105.17l9.899 17.246h19.799l9.899-17.246-9.899-17.246h-19.799l-9.899 17.246zM358.077 87.924l9.899 17.246h19.798l9.9-17.246-9.9-17.245h-19.798l-9.899 17.245z"/><path d="M387.767 105.17l9.899 17.246h19.798l9.899-17.246-9.899-17.246h-19.798l-9.899 17.246zM417.469 87.924l9.899 17.246h19.798l9.899-17.246-9.899-17.245h-19.798l-9.899 17.245zM447.17 105.17l9.899 17.246h19.799l9.899-17.246-9.899-17.246h-19.799l-9.899 17.246z"/><path d="M476.86 87.924l9.899 17.246h19.798l9.9-17.246-9.9-17.245h-19.798l-9.899 17.245zM506.562 105.17l9.899 17.246h19.798l9.899-17.246-9.899-17.246h-19.798l-9.899 17.246zM536.264 87.924l9.899 17.246h19.798l9.899-17.246-9.899-17.245h-19.798l-9.899 17.245z"/><path d="M565.953 105.17l9.899 17.246h19.799l9.899-17.246-9.899-17.246h-19.799l-9.899 17.246zM595.655 87.924l9.899 17.246h19.799l9.899-17.246-9.899-17.245h-19.799l-9.899 17.245zM625.357 105.17l9.899 17.246h19.799l9.899-17.246-9.899-17.246h-19.799l-9.899 17.246z"/><path d="M655.047 87.924l9.899 17.246h19.798l9.899-17.246-9.899-17.245h-19.798l-9.899 17.245zM684.749 105.17l9.899 17.246h19.798l9.899-17.246-9.899-17.246h-19.798l-9.899 17.246zM714.45 87.924l9.9 17.246h19.798l9.899-17.246-9.899-17.245H724.35l-9.9 17.245z"/><path d="M744.14 105.17l9.899 17.246h19.799l9.899-17.246-9.899-17.246h-19.799l-9.899 17.246zM773.842 87.924l9.899 17.246h19.798l9.9-17.246-9.9-17.245h-19.798l-9.899 17.245z"/><path d="M803.532 105.17l9.899 17.246h19.798l9.899-17.246-9.899-17.246h-19.798l-9.899 17.246zM833.234 87.924l9.899 17.246h19.798l9.899-17.246-9.899-17.245h-19.798l-9.899 17.245zM862.935 105.17l9.899 17.246h19.799l9.899-17.246-9.899-17.246h-19.799l-9.899 17.246z"/><path d="M892.625 87.924l9.899 17.246h19.799l9.899-17.246-9.899-17.245h-19.799l-9.899 17.245zM922.327 105.17l9.899 17.246h19.798l9.899-17.246-9.899-17.246h-19.798l-9.899 17.246zM952.029 87.924l9.899 17.246h19.798l9.899-17.246-9.899-17.245h-19.798l-9.899 17.245z"/><path d="M981.718 105.17l9.899 17.246h19.803l9.89-17.246-9.89-17.246h-19.803l-9.899 17.246zM1011.42 87.924l9.9 17.246h19.8l9.9-17.246-9.9-17.245h-19.8l-9.9 17.245z"/><path d="M1041.12 105.17l9.9 17.246h19.8l9.9-17.246-9.9-17.246h-19.8l-9.9 17.246z"/><path d="M1070.81 87.924l9.9 17.246h19.8l9.9-17.246-9.9-17.245h-19.8l-9.9 17.245z"/><path d="M1100.51 105.17l9.9 17.246h19.8l9.9-17.246-9.9-17.246h-19.8l-9.9 17.246zM1.703 122.416l9.9 17.245H31.4l9.899-17.245-9.899-17.246H11.603l-9.9 17.246zM31.4 139.662l9.9 17.246h19.798l9.9-17.246-9.9-17.245H41.3l-9.9 17.245zM61.099 122.416l9.899 17.245h19.798l9.899-17.245-9.899-17.246H70.998l-9.9 17.246z"/><path d="M90.796 139.662l9.899 17.246h19.798l9.899-17.246-9.899-17.245h-19.798l-9.9 17.245zM120.493 122.416l9.899 17.245h19.798l9.899-17.245-9.899-17.246h-19.798l-9.899 17.246z"/><path d="M150.188 139.662l9.899 17.246h19.799l9.899-17.246-9.899-17.245h-19.799l-9.899 17.245zM179.89 122.416l9.899 17.245h19.799l9.899-17.245-9.899-17.246h-19.799l-9.899 17.246z"/><path d="M209.58 139.662l9.899 17.246h19.798l9.899-17.246-9.899-17.245h-19.798l-9.899 17.245zM239.282 122.416l9.899 17.245h19.798l9.899-17.245-9.899-17.246h-19.798l-9.899 17.246zM268.984 139.662l9.899 17.246h19.798l9.899-17.246-9.899-17.245h-19.798l-9.899 17.245z"/><path d="M298.673 122.416l9.899 17.245h19.799l9.899-17.245-9.899-17.246h-19.799l-9.899 17.246zM328.375 139.662l9.899 17.246h19.799l9.899-17.246-9.899-17.245h-19.799l-9.899 17.245zM358.077 122.416l9.899 17.245h19.798l9.9-17.245-9.9-17.246h-19.798l-9.899 17.246z"/><path d="M387.767 139.662l9.899 17.246h19.798l9.899-17.246-9.899-17.245h-19.798l-9.899 17.245zM417.469 122.416l9.899 17.245h19.798l9.899-17.245-9.899-17.246h-19.798l-9.899 17.246zM447.17 139.662l9.899 17.246h19.799l9.899-17.246-9.899-17.245h-19.799l-9.899 17.245z"/><path d="M476.86 122.416l9.899 17.245h19.798l9.9-17.245-9.9-17.246h-19.798l-9.899 17.246zM506.562 139.662l9.899 17.246h19.798l9.899-17.246-9.899-17.245h-19.798l-9.899 17.245zM536.264 122.416l9.899 17.245h19.798l9.899-17.245-9.899-17.246h-19.798l-9.899 17.246z"/><path d="M565.953 139.662l9.899 17.246h19.799l9.899-17.246-9.899-17.245h-19.799l-9.899 17.245zM595.655 122.416l9.899 17.245h19.799l9.899-17.245-9.899-17.246h-19.799l-9.899 17.246zM625.357 139.662l9.899 17.246h19.799l9.899-17.246-9.899-17.245h-19.799l-9.899 17.245z"/><path d="M655.047 122.416l9.899 17.245h19.798l9.899-17.245-9.899-17.246h-19.798l-9.899 17.246zM684.749 139.662l9.899 17.246h19.798l9.899-17.246-9.899-17.245h-19.798l-9.899 17.245zM714.45 122.416l9.9 17.245h19.798l9.899-17.245-9.899-17.246H724.35l-9.9 17.246z"/><path d="M744.14 139.662l9.899 17.246h19.799l9.899-17.246-9.899-17.245h-19.799l-9.899 17.245zM773.842 122.416l9.899 17.245h19.798l9.9-17.245-9.9-17.246h-19.798l-9.899 17.246z"/><path d="M803.532 139.662l9.899 17.246h19.798l9.899-17.246-9.899-17.245h-19.798l-9.899 17.245zM833.234 122.416l9.899 17.245h19.798l9.899-17.245-9.899-17.246h-19.798l-9.899 17.246zM862.935 139.662l9.899 17.246h19.799l9.899-17.246-9.899-17.245h-19.799l-9.899 17.245z"/><path d="M892.625 122.416l9.899 17.245h19.799l9.899-17.245-9.899-17.246h-19.799l-9.899 17.246zM922.327 139.662l9.899 17.246h19.798l9.899-17.246-9.899-17.245h-19.798l-9.899 17.245zM952.029 122.416l9.899 17.245h19.798l9.899-17.245-9.899-17.246h-19.798l-9.899 17.246z"/><path d="M981.718 139.662l9.899 17.246h19.803l9.89-17.246-9.89-17.245h-19.803l-9.899 17.245zM1011.42 122.416l9.9 17.245h19.8l9.9-17.245-9.9-17.246h-19.8l-9.9 17.246zM1041.12 139.662l9.9 17.246h19.8l9.9-17.246-9.9-17.245h-19.8l-9.9 17.245z"/><path d="M1070.81 122.416l9.9 17.245h19.8l9.9-17.245-9.9-17.246h-19.8l-9.9 17.246zM1100.51 139.662l9.9 17.246h19.8l9.9-17.246-9.9-17.245h-19.8l-9.9 17.245zM1.703 156.912l9.9 17.245H31.4l9.899-17.245-9.899-17.246H11.603l-9.9 17.246z"/><path d="M31.4 174.153l9.9 17.246h19.798l9.9-17.246-9.9-17.245H41.3l-9.9 17.245z"/><path d="M61.099 156.912l9.899 17.245h19.798l9.899-17.245-9.899-17.246H70.998l-9.9 17.246z"/><path d="M90.796 174.153l9.899 17.246h19.798l9.899-17.246-9.899-17.245h-19.798l-9.9 17.245z"/><path d="M120.493 156.912l9.899 17.245h19.798l9.899-17.245-9.899-17.246h-19.798l-9.899 17.246z"/><path d="M150.188 174.153l9.899 17.246h19.799l9.899-17.246-9.899-17.245h-19.799l-9.899 17.245zM179.89 156.912l9.899 17.245h19.799l9.899-17.245-9.899-17.246h-19.799l-9.899 17.246z"/><path d="M209.58 174.153l9.899 17.246h19.798l9.899-17.246-9.899-17.245h-19.798l-9.899 17.245zM239.282 156.912l9.899 17.245h19.798l9.899-17.245-9.899-17.246h-19.798l-9.899 17.246zM268.984 174.153l9.899 17.246h19.798l9.899-17.246-9.899-17.245h-19.798l-9.899 17.245z"/><path d="M298.673 156.912l9.899 17.245h19.799l9.899-17.245-9.899-17.246h-19.799l-9.899 17.246zM328.375 174.153l9.899 17.246h19.799l9.899-17.246-9.899-17.245h-19.799l-9.899 17.245zM358.077 156.912l9.899 17.245h19.798l9.9-17.245-9.9-17.246h-19.798l-9.899 17.246z"/><path d="M387.767 174.153l9.899 17.246h19.798l9.899-17.246-9.899-17.245h-19.798l-9.899 17.245zM417.469 156.912l9.899 17.245h19.798l9.899-17.245-9.899-17.246h-19.798l-9.899 17.246zM447.17 174.153l9.899 17.246h19.799l9.899-17.246-9.899-17.245h-19.799l-9.899 17.245z"/><path d="M476.86 156.912l9.899 17.245h19.798l9.9-17.245-9.9-17.246h-19.798l-9.899 17.246zM506.562 174.153l9.899 17.246h19.798l9.899-17.246-9.899-17.245h-19.798l-9.899 17.245zM536.264 156.912l9.899 17.245h19.798l9.899-17.245-9.899-17.246h-19.798l-9.899 17.246z"/><path d="M565.953 174.153l9.899 17.246h19.799l9.899-17.246-9.899-17.245h-19.799l-9.899 17.245zM595.655 156.912l9.899 17.245h19.799l9.899-17.245-9.899-17.246h-19.799l-9.899 17.246zM625.357 174.153l9.899 17.246h19.799l9.899-17.246-9.899-17.245h-19.799l-9.899 17.245z"/><path d="M655.047 156.912l9.899 17.245h19.798l9.899-17.245-9.899-17.246h-19.798l-9.899 17.246zM684.749 174.153l9.899 17.246h19.798l9.899-17.246-9.899-17.245h-19.798l-9.899 17.245zM714.45 156.912l9.9 17.245h19.798l9.899-17.245-9.899-17.246H724.35l-9.9 17.246z"/><path d="M744.14 174.153l9.899 17.246h19.799l9.899-17.246-9.899-17.245h-19.799l-9.899 17.245zM773.842 156.912l9.899 17.245h19.798l9.9-17.245-9.9-17.246h-19.798l-9.899 17.246z"/><path d="M803.532 174.153l9.899 17.246h19.798l9.899-17.246-9.899-17.245h-19.798l-9.899 17.245zM833.234 156.912l9.899 17.245h19.798l9.899-17.245-9.899-17.246h-19.798l-9.899 17.246zM862.935 174.153l9.899 17.246h19.799l9.899-17.246-9.899-17.245h-19.799l-9.899 17.245z"/><path d="M892.625 156.912l9.899 17.245h19.799l9.899-17.245-9.899-17.246h-19.799l-9.899 17.246zM922.327 174.153l9.899 17.246h19.798l9.899-17.246-9.899-17.245h-19.798l-9.899 17.245zM952.029 156.912l9.899 17.245h19.798l9.899-17.245-9.899-17.246h-19.798l-9.899 17.246z"/><path d="M981.718 174.153l9.899 17.246h19.803l9.89-17.246-9.89-17.245h-19.803l-9.899 17.245z"/><path d="M1011.42 156.912l9.9 17.245h19.8l9.9-17.245-9.9-17.246h-19.8l-9.9 17.246z"/><path d="M1041.12 174.153l9.9 17.246h19.8l9.9-17.246-9.9-17.245h-19.8l-9.9 17.245z"/><path d="M1070.81 156.912l9.9 17.245h19.8l9.9-17.245-9.9-17.246h-19.8l-9.9 17.246z"/><path d="M1100.51 174.153l9.9 17.246h19.8l9.9-17.246-9.9-17.245h-19.8l-9.9 17.245zM1.703 191.395l9.9 17.246H31.4l9.899-17.246-9.899-17.245H11.603l-9.9 17.245zM31.4 208.649l9.9 17.246h19.798l9.9-17.246-9.9-17.245H41.3l-9.9 17.245zM61.099 191.395l9.899 17.246h19.798l9.899-17.246-9.899-17.245H70.998l-9.9 17.245zM90.796 208.649l9.899 17.246h19.798l9.899-17.246-9.899-17.245h-19.798l-9.9 17.245zM120.493 191.395l9.899 17.246h19.798l9.899-17.246-9.899-17.245h-19.798l-9.899 17.245zM150.188 208.649l9.899 17.246h19.799l9.899-17.246-9.899-17.245h-19.799l-9.899 17.245zM179.89 191.395l9.899 17.246h19.799l9.899-17.246-9.899-17.245h-19.799l-9.899 17.245z"/><path d="M209.58 208.649l9.899 17.246h19.798l9.899-17.246-9.899-17.245h-19.798l-9.899 17.245zM239.282 191.395l9.899 17.246h19.798l9.899-17.246-9.899-17.245h-19.798l-9.899 17.245zM268.984 208.649l9.899 17.246h19.798l9.899-17.246-9.899-17.245h-19.798l-9.899 17.245z"/><path d="M298.673 191.395l9.899 17.246h19.799l9.899-17.246-9.899-17.245h-19.799l-9.899 17.245zM328.375 208.649l9.899 17.246h19.799l9.899-17.246-9.899-17.245h-19.799l-9.899 17.245zM358.077 191.395l9.899 17.246h19.798l9.9-17.246-9.9-17.245h-19.798l-9.899 17.245z"/><path d="M387.767 208.649l9.899 17.246h19.798l9.899-17.246-9.899-17.245h-19.798l-9.899 17.245zM417.469 191.395l9.899 17.246h19.798l9.899-17.246-9.899-17.245h-19.798l-9.899 17.245zM447.17 208.649l9.899 17.246h19.799l9.899-17.246-9.899-17.245h-19.799l-9.899 17.245z"/><path d="M476.86 191.395l9.899 17.246h19.798l9.9-17.246-9.9-17.245h-19.798l-9.899 17.245zM506.562 208.649l9.899 17.246h19.798l9.899-17.246-9.899-17.245h-19.798l-9.899 17.245zM536.264 191.395l9.899 17.246h19.798l9.899-17.246-9.899-17.245h-19.798l-9.899 17.245z"/><path d="M565.953 208.649l9.899 17.246h19.799l9.899-17.246-9.899-17.245h-19.799l-9.899 17.245zM595.655 191.395l9.899 17.246h19.799l9.899-17.246-9.899-17.245h-19.799l-9.899 17.245zM625.357 208.649l9.899 17.246h19.799l9.899-17.246-9.899-17.245h-19.799l-9.899 17.245z"/><path d="M655.047 191.395l9.899 17.246h19.798l9.899-17.246-9.899-17.245h-19.798l-9.899 17.245zM684.749 208.649l9.899 17.246h19.798l9.899-17.246-9.899-17.245h-19.798l-9.899 17.245zM714.45 191.395l9.9 17.246h19.798l9.899-17.246-9.899-17.245H724.35l-9.9 17.245z"/><path d="M744.14 208.649l9.899 17.246h19.799l9.899-17.246-9.899-17.245h-19.799l-9.899 17.245zM773.842 191.395l9.899 17.246h19.798l9.9-17.246-9.9-17.245h-19.798l-9.899 17.245z"/><path d="M803.532 208.649l9.899 17.246h19.798l9.899-17.246-9.899-17.245h-19.798l-9.899 17.245zM833.234 191.395l9.899 17.246h19.798l9.899-17.246-9.899-17.245h-19.798l-9.899 17.245zM862.935 208.649l9.899 17.246h19.799l9.899-17.246-9.899-17.245h-19.799l-9.899 17.245z"/><path d="M892.625 191.395l9.899 17.246h19.799l9.899-17.246-9.899-17.245h-19.799l-9.899 17.245zM922.327 208.649l9.899 17.246h19.798l9.899-17.246-9.899-17.245h-19.798l-9.899 17.245zM952.029 191.395l9.899 17.246h19.798l9.899-17.246-9.899-17.245h-19.798l-9.899 17.245z"/><path d="M981.718 208.649l9.899 17.246h19.803l9.89-17.246-9.89-17.245h-19.803l-9.899 17.245zM1011.42 191.395l9.9 17.246h19.8l9.9-17.246-9.9-17.245h-19.8l-9.9 17.245zM1041.12 208.649l9.9 17.246h19.8l9.9-17.246-9.9-17.245h-19.8l-9.9 17.245z"/><path d="M1070.81 191.395l9.9 17.246h19.8l9.9-17.246-9.9-17.245h-19.8l-9.9 17.245zM1100.51 208.649l9.9 17.246h19.8l9.9-17.246-9.9-17.245h-19.8l-9.9 17.245zM1.703 225.891l9.9 17.246H31.4l9.899-17.246-9.899-17.245H11.603l-9.9 17.245z"/><path d="M31.4 243.133l9.9 17.246h19.798l9.9-17.246-9.9-17.245H41.3l-9.9 17.245z"/><path d="M61.099 225.891l9.899 17.246h19.798l9.899-17.246-9.899-17.245H70.998l-9.9 17.245z"/><path d="M90.796 243.133l9.899 17.246h19.798l9.899-17.246-9.899-17.245h-19.798l-9.9 17.245z"/><path d="M120.493 225.891l9.899 17.246h19.798l9.899-17.246-9.899-17.245h-19.798l-9.899 17.245z"/><path d="M150.188 243.133l9.899 17.246h19.799l9.899-17.246-9.899-17.245h-19.799l-9.899 17.245zM179.89 225.891l9.899 17.246h19.799l9.899-17.246-9.899-17.245h-19.799l-9.899 17.245z"/><path d="M209.58 243.133l9.899 17.246h19.798l9.899-17.246-9.899-17.245h-19.798l-9.899 17.245zM239.282 225.891l9.899 17.246h19.798l9.899-17.246-9.899-17.245h-19.798l-9.899 17.245zM268.984 243.133l9.899 17.246h19.798l9.899-17.246-9.899-17.245h-19.798l-9.899 17.245z"/><path d="M298.673 225.891l9.899 17.246h19.799l9.899-17.246-9.899-17.245h-19.799l-9.899 17.245zM328.375 243.133l9.899 17.246h19.799l9.899-17.246-9.899-17.245h-19.799l-9.899 17.245zM358.077 225.891l9.899 17.246h19.798l9.9-17.246-9.9-17.245h-19.798l-9.899 17.245z"/><path d="M387.767 243.133l9.899 17.246h19.798l9.899-17.246-9.899-17.245h-19.798l-9.899 17.245zM417.469 225.891l9.899 17.246h19.798l9.899-17.246-9.899-17.245h-19.798l-9.899 17.245zM447.17 243.133l9.899 17.246h19.799l9.899-17.246-9.899-17.245h-19.799l-9.899 17.245z"/><path d="M476.86 225.891l9.899 17.246h19.798l9.9-17.246-9.9-17.245h-19.798l-9.899 17.245zM506.562 243.133l9.899 17.246h19.798l9.899-17.246-9.899-17.245h-19.798l-9.899 17.245zM536.264 225.891l9.899 17.246h19.798l9.899-17.246-9.899-17.245h-19.798l-9.899 17.245z"/><path d="M565.953 243.133l9.899 17.246h19.799l9.899-17.246-9.899-17.245h-19.799l-9.899 17.245zM595.655 225.891l9.899 17.246h19.799l9.899-17.246-9.899-17.245h-19.799l-9.899 17.245zM625.357 243.133l9.899 17.246h19.799l9.899-17.246-9.899-17.245h-19.799l-9.899 17.245z"/><path d="M655.047 225.891l9.899 17.246h19.798l9.899-17.246-9.899-17.245h-19.798l-9.899 17.245zM684.749 243.133l9.899 17.246h19.798l9.899-17.246-9.899-17.245h-19.798l-9.899 17.245zM714.45 225.891l9.9 17.246h19.798l9.899-17.246-9.899-17.245H724.35l-9.9 17.245z"/><path d="M744.14 243.133l9.899 17.246h19.799l9.899-17.246-9.899-17.245h-19.799l-9.899 17.245zM773.842 225.891l9.899 17.246h19.798l9.9-17.246-9.9-17.245h-19.798l-9.899 17.245z"/><path d="M803.532 243.133l9.899 17.246h19.798l9.899-17.246-9.899-17.245h-19.798l-9.899 17.245zM833.234 225.891l9.899 17.246h19.798l9.899-17.246-9.899-17.245h-19.798l-9.899 17.245zM862.935 243.133l9.899 17.246h19.799l9.899-17.246-9.899-17.245h-19.799l-9.899 17.245z"/><path d="M892.625 225.891l9.899 17.246h19.799l9.899-17.246-9.899-17.245h-19.799l-9.899 17.245zM922.327 243.133l9.899 17.246h19.798l9.899-17.246-9.899-17.245h-19.798l-9.899 17.245zM952.029 225.891l9.899 17.246h19.798l9.899-17.246-9.899-17.245h-19.798l-9.899 17.245z"/><path d="M981.718 243.133l9.899 17.246h19.803l9.89-17.246-9.89-17.245h-19.803l-9.899 17.245z"/><path d="M1011.42 225.891l9.9 17.246h19.8l9.9-17.246-9.9-17.245h-19.8l-9.9 17.245z"/><path d="M1041.12 243.133l9.9 17.246h19.8l9.9-17.246-9.9-17.245h-19.8l-9.9 17.245z"/><path d="M1070.81 225.891l9.9 17.246h19.8l9.9-17.246-9.9-17.245h-19.8l-9.9 17.245z"/><path d="M1100.51 243.133l9.9 17.246h19.8l9.9-17.246-9.9-17.245h-19.8l-9.9 17.245zM1.703 260.375l9.9 17.246H31.4l9.899-17.246-9.899-17.245H11.603l-9.9 17.245zM31.4 277.629l9.9 17.246h19.798l9.9-17.246-9.9-17.245H41.3l-9.9 17.245zM61.099 260.375l9.899 17.246h19.798l9.899-17.246-9.899-17.245H70.998l-9.9 17.245zM90.796 277.629l9.899 17.246h19.798l9.899-17.246-9.899-17.245h-19.798l-9.9 17.245zM120.493 260.375l9.899 17.246h19.798l9.899-17.246-9.899-17.245h-19.798l-9.899 17.245zM150.188 277.629l9.899 17.246h19.799l9.899-17.246-9.899-17.245h-19.799l-9.899 17.245zM179.89 260.375l9.899 17.246h19.799l9.899-17.246-9.899-17.245h-19.799l-9.899 17.245z"/><path d="M209.58 277.629l9.899 17.246h19.798l9.899-17.246-9.899-17.245h-19.798l-9.899 17.245zM239.282 260.375l9.899 17.246h19.798l9.899-17.246-9.899-17.245h-19.798l-9.899 17.245zM268.984 277.629l9.899 17.246h19.798l9.899-17.246-9.899-17.245h-19.798l-9.899 17.245z"/><path d="M298.673 260.375l9.899 17.246h19.799l9.899-17.246-9.899-17.245h-19.799l-9.899 17.245zM328.375 277.629l9.899 17.246h19.799l9.899-17.246-9.899-17.245h-19.799l-9.899 17.245zM358.077 260.375l9.899 17.246h19.798l9.9-17.246-9.9-17.245h-19.798l-9.899 17.245z"/><path d="M387.767 277.629l9.899 17.246h19.798l9.899-17.246-9.899-17.245h-19.798l-9.899 17.245zM417.469 260.375l9.899 17.246h19.798l9.899-17.246-9.899-17.245h-19.798l-9.899 17.245zM447.17 277.629l9.899 17.246h19.799l9.899-17.246-9.899-17.245h-19.799l-9.899 17.245z"/><path d="M476.86 260.375l9.899 17.246h19.798l9.9-17.246-9.9-17.245h-19.798l-9.899 17.245zM506.562 277.629l9.899 17.246h19.798l9.899-17.246-9.899-17.245h-19.798l-9.899 17.245zM536.264 260.375l9.899 17.246h19.798l9.899-17.246-9.899-17.245h-19.798l-9.899 17.245z"/><path d="M565.953 277.629l9.899 17.246h19.799l9.899-17.246-9.899-17.245h-19.799l-9.899 17.245zM595.655 260.375l9.899 17.246h19.799l9.899-17.246-9.899-17.245h-19.799l-9.899 17.245zM625.357 277.629l9.899 17.246h19.799l9.899-17.246-9.899-17.245h-19.799l-9.899 17.245z"/><path d="M655.047 260.375l9.899 17.246h19.798l9.899-17.246-9.899-17.245h-19.798l-9.899 17.245zM684.749 277.629l9.899 17.246h19.798l9.899-17.246-9.899-17.245h-19.798l-9.899 17.245zM714.45 260.375l9.9 17.246h19.798l9.899-17.246-9.899-17.245H724.35l-9.9 17.245z"/><path d="M744.14 277.629l9.899 17.246h19.799l9.899-17.246-9.899-17.245h-19.799l-9.899 17.245zM773.842 260.375l9.899 17.246h19.798l9.9-17.246-9.9-17.245h-19.798l-9.899 17.245z"/><path d="M803.532 277.629l9.899 17.246h19.798l9.899-17.246-9.899-17.245h-19.798l-9.899 17.245zM833.234 260.375l9.899 17.246h19.798l9.899-17.246-9.899-17.245h-19.798l-9.899 17.245zM862.935 277.629l9.899 17.246h19.799l9.899-17.246-9.899-17.245h-19.799l-9.899 17.245z"/><path d="M892.625 260.375l9.899 17.246h19.799l9.899-17.246-9.899-17.245h-19.799l-9.899 17.245zM922.327 277.629l9.899 17.246h19.798l9.899-17.246-9.899-17.245h-19.798l-9.899 17.245zM952.029 260.375l9.899 17.246h19.798l9.899-17.246-9.899-17.245h-19.798l-9.899 17.245z"/><path d="M981.718 277.629l9.899 17.246h19.803l9.89-17.246-9.89-17.245h-19.803l-9.899 17.245zM1011.42 260.375l9.9 17.246h19.8l9.9-17.246-9.9-17.245h-19.8l-9.9 17.245zM1041.12 277.629l9.9 17.246h19.8l9.9-17.246-9.9-17.245h-19.8l-9.9 17.245z"/><path d="M1070.81 260.375l9.9 17.246h19.8l9.9-17.246-9.9-17.245h-19.8l-9.9 17.245zM1100.51 277.629l9.9 17.246h19.8l9.9-17.246-9.9-17.245h-19.8l-9.9 17.245zM1.703 294.871l9.9 17.246H31.4l9.899-17.246-9.899-17.245H11.603l-9.9 17.245z"/><path d="M31.4 312.113l9.9 17.246h19.798l9.9-17.246-9.9-17.245H41.3l-9.9 17.245z"/><path d="M61.099 294.871l9.899 17.246h19.798l9.899-17.246-9.899-17.245H70.998l-9.9 17.245z"/><path d="M90.796 312.113l9.899 17.246h19.798l9.899-17.246-9.899-17.245h-19.798l-9.9 17.245z"/><path d="M120.493 294.871l9.899 17.246h19.798l9.899-17.246-9.899-17.245h-19.798l-9.899 17.245z"/><path d="M150.188 312.113l9.899 17.246h19.799l9.899-17.246-9.899-17.245h-19.799l-9.899 17.245zM179.89 294.871l9.899 17.246h19.799l9.899-17.246-9.899-17.245h-19.799l-9.899 17.245z"/><path d="M209.58 312.113l9.899 17.246h19.798l9.899-17.246-9.899-17.245h-19.798l-9.899 17.245zM239.282 294.871l9.899 17.246h19.798l9.899-17.246-9.899-17.245h-19.798l-9.899 17.245zM268.984 312.113l9.899 17.246h19.798l9.899-17.246-9.899-17.245h-19.798l-9.899 17.245z"/><path d="M298.673 294.871l9.899 17.246h19.799l9.899-17.246-9.899-17.245h-19.799l-9.899 17.245zM328.375 312.113l9.899 17.246h19.799l9.899-17.246-9.899-17.245h-19.799l-9.899 17.245zM358.077 294.871l9.899 17.246h19.798l9.9-17.246-9.9-17.245h-19.798l-9.899 17.245z"/><path d="M387.767 312.113l9.899 17.246h19.798l9.899-17.246-9.899-17.245h-19.798l-9.899 17.245zM417.469 294.871l9.899 17.246h19.798l9.899-17.246-9.899-17.245h-19.798l-9.899 17.245zM447.17 312.113l9.899 17.246h19.799l9.899-17.246-9.899-17.245h-19.799l-9.899 17.245z"/><path d="M476.86 294.871l9.899 17.246h19.798l9.9-17.246-9.9-17.245h-19.798l-9.899 17.245zM506.562 312.113l9.899 17.246h19.798l9.899-17.246-9.899-17.245h-19.798l-9.899 17.245zM536.264 294.871l9.899 17.246h19.798l9.899-17.246-9.899-17.245h-19.798l-9.899 17.245z"/><path d="M565.953 312.113l9.899 17.246h19.799l9.899-17.246-9.899-17.245h-19.799l-9.899 17.245zM595.655 294.871l9.899 17.246h19.799l9.899-17.246-9.899-17.245h-19.799l-9.899 17.245zM625.357 312.113l9.899 17.246h19.799l9.899-17.246-9.899-17.245h-19.799l-9.899 17.245z"/><path d="M655.047 294.871l9.899 17.246h19.798l9.899-17.246-9.899-17.245h-19.798l-9.899 17.245zM684.749 312.113l9.899 17.246h19.798l9.899-17.246-9.899-17.245h-19.798l-9.899 17.245zM714.45 294.871l9.9 17.246h19.798l9.899-17.246-9.899-17.245H724.35l-9.9 17.245z"/><path d="M744.14 312.113l9.899 17.246h19.799l9.899-17.246-9.899-17.245h-19.799l-9.899 17.245zM773.842 294.871l9.899 17.246h19.798l9.9-17.246-9.9-17.245h-19.798l-9.899 17.245z"/><path d="M803.532 312.113l9.899 17.246h19.798l9.899-17.246-9.899-17.245h-19.798l-9.899 17.245zM833.234 294.871l9.899 17.246h19.798l9.899-17.246-9.899-17.245h-19.798l-9.899 17.245zM862.935 312.113l9.899 17.246h19.799l9.899-17.246-9.899-17.245h-19.799l-9.899 17.245z"/><path d="M892.625 294.871l9.899 17.246h19.799l9.899-17.246-9.899-17.245h-19.799l-9.899 17.245zM922.327 312.113l9.899 17.246h19.798l9.899-17.246-9.899-17.245h-19.798l-9.899 17.245zM952.029 294.871l9.899 17.246h19.798l9.899-17.246-9.899-17.245h-19.798l-9.899 17.245z"/><path d="M981.718 312.113l9.899 17.246h19.803l9.89-17.246-9.89-17.245h-19.803l-9.899 17.245z"/><path d="M1011.42 294.871l9.9 17.246h19.8l9.9-17.246-9.9-17.245h-19.8l-9.9 17.245z"/><path d="M1041.12 312.113l9.9 17.246h19.8l9.9-17.246-9.9-17.245h-19.8l-9.9 17.245z"/><path d="M1070.81 294.871l9.9 17.246h19.8l9.9-17.246-9.9-17.245h-19.8l-9.9 17.245z"/><path d="M1100.51 312.113l9.9 17.246h19.8l9.9-17.246-9.9-17.245h-19.8l-9.9 17.245zM1.703 329.367l9.9 17.246H31.4l9.899-17.246-9.899-17.245H11.603l-9.9 17.245z"/><path d="M31.4 346.609l9.9 17.246h19.798l9.9-17.246-9.9-17.245H41.3l-9.9 17.245z"/><path d="M61.099 329.367l9.899 17.246h19.798l9.899-17.246-9.899-17.245H70.998l-9.9 17.245z"/><path d="M90.796 346.609l9.899 17.246h19.798l9.899-17.246-9.899-17.245h-19.798l-9.9 17.245z"/><path d="M120.493 329.367l9.899 17.246h19.798l9.899-17.246-9.899-17.245h-19.798l-9.899 17.245z"/><path d="M150.188 346.609l9.899 17.246h19.799l9.899-17.246-9.899-17.245h-19.799l-9.899 17.245zM179.89 329.367l9.899 17.246h19.799l9.899-17.246-9.899-17.245h-19.799l-9.899 17.245z"/><path d="M209.58 346.609l9.899 17.246h19.798l9.899-17.246-9.899-17.245h-19.798l-9.899 17.245zM239.282 329.367l9.899 17.246h19.798l9.899-17.246-9.899-17.245h-19.798l-9.899 17.245zM268.984 346.609l9.899 17.246h19.798l9.899-17.246-9.899-17.245h-19.798l-9.899 17.245z"/><path d="M298.673 329.367l9.899 17.246h19.799l9.899-17.246-9.899-17.245h-19.799l-9.899 17.245zM328.375 346.609l9.899 17.246h19.799l9.899-17.246-9.899-17.245h-19.799l-9.899 17.245zM358.077 329.367l9.899 17.246h19.798l9.9-17.246-9.9-17.245h-19.798l-9.899 17.245z"/><path d="M387.767 346.609l9.899 17.246h19.798l9.899-17.246-9.899-17.245h-19.798l-9.899 17.245zM417.469 329.367l9.899 17.246h19.798l9.899-17.246-9.899-17.245h-19.798l-9.899 17.245zM447.17 346.609l9.899 17.246h19.799l9.899-17.246-9.899-17.245h-19.799l-9.899 17.245z"/><path d="M476.86 329.367l9.899 17.246h19.798l9.9-17.246-9.9-17.245h-19.798l-9.899 17.245zM506.562 346.609l9.899 17.246h19.798l9.899-17.246-9.899-17.245h-19.798l-9.899 17.245zM536.264 329.367l9.899 17.246h19.798l9.899-17.246-9.899-17.245h-19.798l-9.899 17.245z"/><path d="M565.953 346.609l9.899 17.246h19.799l9.899-17.246-9.899-17.245h-19.799l-9.899 17.245zM595.655 329.367l9.899 17.246h19.799l9.899-17.246-9.899-17.245h-19.799l-9.899 17.245zM625.357 346.609l9.899 17.246h19.799l9.899-17.246-9.899-17.245h-19.799l-9.899 17.245z"/><path d="M655.047 329.367l9.899 17.246h19.798l9.899-17.246-9.899-17.245h-19.798l-9.899 17.245zM684.749 346.609l9.899 17.246h19.798l9.899-17.246-9.899-17.245h-19.798l-9.899 17.245zM714.45 329.367l9.9 17.246h19.798l9.899-17.246-9.899-17.245H724.35l-9.9 17.245z"/><path d="M744.14 346.609l9.899 17.246h19.799l9.899-17.246-9.899-17.245h-19.799l-9.899 17.245zM773.842 329.367l9.899 17.246h19.798l9.9-17.246-9.9-17.245h-19.798l-9.899 17.245z"/><path d="M803.532 346.609l9.899 17.246h19.798l9.899-17.246-9.899-17.245h-19.798l-9.899 17.245zM833.234 329.367l9.899 17.246h19.798l9.899-17.246-9.899-17.245h-19.798l-9.899 17.245zM862.935 346.609l9.899 17.246h19.799l9.899-17.246-9.899-17.245h-19.799l-9.899 17.245z"/><path d="M892.625 329.367l9.899 17.246h19.799l9.899-17.246-9.899-17.245h-19.799l-9.899 17.245zM922.327 346.609l9.899 17.246h19.798l9.899-17.246-9.899-17.245h-19.798l-9.899 17.245zM952.029 329.367l9.899 17.246h19.798l9.899-17.246-9.899-17.245h-19.798l-9.899 17.245z"/><path d="M981.718 346.609l9.899 17.246h19.803l9.89-17.246-9.89-17.245h-19.803l-9.899 17.245z"/><path d="M1011.42 329.367l9.9 17.246h19.8l9.9-17.246-9.9-17.245h-19.8l-9.9 17.245z"/><path d="M1041.12 346.609l9.9 17.246h19.8l9.9-17.246-9.9-17.245h-19.8l-9.9 17.245z"/><path d="M1070.81 329.367l9.9 17.246h19.8l9.9-17.246-9.9-17.245h-19.8l-9.9 17.245z"/><path d="M1100.51 346.609l9.9 17.246h19.8l9.9-17.246-9.9-17.245h-19.8l-9.9 17.245zM1.703 363.851l9.9 17.246H31.4l9.899-17.246-9.899-17.246H11.603l-9.9 17.246zM31.4 381.105l9.9 17.246h19.798l9.9-17.246-9.9-17.245H41.3l-9.9 17.245zM61.099 363.851l9.899 17.246h19.798l9.899-17.246-9.899-17.246H70.998l-9.9 17.246zM90.796 381.105l9.899 17.246h19.798l9.899-17.246-9.899-17.245h-19.798l-9.9 17.245zM120.493 363.851l9.899 17.246h19.798l9.899-17.246-9.899-17.246h-19.798l-9.899 17.246zM150.188 381.105l9.899 17.246h19.799l9.899-17.246-9.899-17.245h-19.799l-9.899 17.245zM179.89 363.851l9.899 17.246h19.799l9.899-17.246-9.899-17.246h-19.799l-9.899 17.246z"/><path d="M209.58 381.105l9.899 17.246h19.798l9.899-17.246-9.899-17.245h-19.798l-9.899 17.245zM239.282 363.851l9.899 17.246h19.798l9.899-17.246-9.899-17.246h-19.798l-9.899 17.246zM268.984 381.105l9.899 17.246h19.798l9.899-17.246-9.899-17.245h-19.798l-9.899 17.245z"/><path d="M298.673 363.851l9.899 17.246h19.799l9.899-17.246-9.899-17.246h-19.799l-9.899 17.246zM328.375 381.105l9.899 17.246h19.799l9.899-17.246-9.899-17.245h-19.799l-9.899 17.245zM358.077 363.851l9.899 17.246h19.798l9.9-17.246-9.9-17.246h-19.798l-9.899 17.246z"/><path d="M387.767 381.105l9.899 17.246h19.798l9.899-17.246-9.899-17.245h-19.798l-9.899 17.245zM417.469 363.851l9.899 17.246h19.798l9.899-17.246-9.899-17.246h-19.798l-9.899 17.246zM447.17 381.105l9.899 17.246h19.799l9.899-17.246-9.899-17.245h-19.799l-9.899 17.245z"/><path d="M476.86 363.851l9.899 17.246h19.798l9.9-17.246-9.9-17.246h-19.798l-9.899 17.246zM506.562 381.105l9.899 17.246h19.798l9.899-17.246-9.899-17.245h-19.798l-9.899 17.245zM536.264 363.851l9.899 17.246h19.798l9.899-17.246-9.899-17.246h-19.798l-9.899 17.246z"/><path d="M565.953 381.105l9.899 17.246h19.799l9.899-17.246-9.899-17.245h-19.799l-9.899 17.245zM595.655 363.851l9.899 17.246h19.799l9.899-17.246-9.899-17.246h-19.799l-9.899 17.246zM625.357 381.105l9.899 17.246h19.799l9.899-17.246-9.899-17.245h-19.799l-9.899 17.245z"/><path d="M655.047 363.851l9.899 17.246h19.798l9.899-17.246-9.899-17.246h-19.798l-9.899 17.246zM684.749 381.105l9.899 17.246h19.798l9.899-17.246-9.899-17.245h-19.798l-9.899 17.245zM714.45 363.851l9.9 17.246h19.798l9.899-17.246-9.899-17.246H724.35l-9.9 17.246z"/><path d="M744.14 381.105l9.899 17.246h19.799l9.899-17.246-9.899-17.245h-19.799l-9.899 17.245zM773.842 363.851l9.899 17.246h19.798l9.9-17.246-9.9-17.246h-19.798l-9.899 17.246z"/><path d="M803.532 381.105l9.899 17.246h19.798l9.899-17.246-9.899-17.245h-19.798l-9.899 17.245zM833.234 363.851l9.899 17.246h19.798l9.899-17.246-9.899-17.246h-19.798l-9.899 17.246zM862.935 381.105l9.899 17.246h19.799l9.899-17.246-9.899-17.245h-19.799l-9.899 17.245z"/><path d="M892.625 363.851l9.899 17.246h19.799l9.899-17.246-9.899-17.246h-19.799l-9.899 17.246zM922.327 381.105l9.899 17.246h19.798l9.899-17.246-9.899-17.245h-19.798l-9.899 17.245zM952.029 363.851l9.899 17.246h19.798l9.899-17.246-9.899-17.246h-19.798l-9.899 17.246z"/><path d="M981.718 381.105l9.899 17.246h19.803l9.89-17.246-9.89-17.245h-19.803l-9.899 17.245zM1011.42 363.851l9.9 17.246h19.8l9.9-17.246-9.9-17.246h-19.8l-9.9 17.246zM1041.12 381.105l9.9 17.246h19.8l9.9-17.246-9.9-17.245h-19.8l-9.9 17.245z"/><path d="M1070.81 363.851l9.9 17.246h19.8l9.9-17.246-9.9-17.246h-19.8l-9.9 17.246zM1100.51 381.105l9.9 17.246h19.8l9.9-17.246-9.9-17.245h-19.8l-9.9 17.245zM1.703 398.347l9.9 17.246H31.4l9.899-17.246-9.899-17.245H11.603l-9.9 17.245z"/><path d="M31.4 415.589l9.9 17.246h19.798l9.9-17.246-9.9-17.246H41.3l-9.9 17.246z"/><path d="M61.099 398.347l9.899 17.246h19.798l9.899-17.246-9.899-17.245H70.998l-9.9 17.245z"/><path d="M90.796 415.589l9.899 17.246h19.798l9.899-17.246-9.899-17.246h-19.798l-9.9 17.246z"/><path d="M120.493 398.347l9.899 17.246h19.798l9.899-17.246-9.899-17.245h-19.798l-9.899 17.245z"/><path d="M150.188 415.589l9.899 17.246h19.799l9.899-17.246-9.899-17.246h-19.799l-9.899 17.246zM179.89 398.347l9.899 17.246h19.799l9.899-17.246-9.899-17.245h-19.799l-9.899 17.245z"/><path d="M209.58 415.589l9.899 17.246h19.798l9.899-17.246-9.899-17.246h-19.798l-9.899 17.246zM239.282 398.347l9.899 17.246h19.798l9.899-17.246-9.899-17.245h-19.798l-9.899 17.245zM268.984 415.589l9.899 17.246h19.798l9.899-17.246-9.899-17.246h-19.798l-9.899 17.246z"/><path d="M298.673 398.347l9.899 17.246h19.799l9.899-17.246-9.899-17.245h-19.799l-9.899 17.245zM328.375 415.589l9.899 17.246h19.799l9.899-17.246-9.899-17.246h-19.799l-9.899 17.246zM358.077 398.347l9.899 17.246h19.798l9.9-17.246-9.9-17.245h-19.798l-9.899 17.245z"/><path d="M387.767 415.589l9.899 17.246h19.798l9.899-17.246-9.899-17.246h-19.798l-9.899 17.246zM417.469 398.347l9.899 17.246h19.798l9.899-17.246-9.899-17.245h-19.798l-9.899 17.245zM447.17 415.589l9.899 17.246h19.799l9.899-17.246-9.899-17.246h-19.799l-9.899 17.246z"/><path d="M476.86 398.347l9.899 17.246h19.798l9.9-17.246-9.9-17.245h-19.798l-9.899 17.245zM506.562 415.589l9.899 17.246h19.798l9.899-17.246-9.899-17.246h-19.798l-9.899 17.246zM536.264 398.347l9.899 17.246h19.798l9.899-17.246-9.899-17.245h-19.798l-9.899 17.245z"/><path d="M565.953 415.589l9.899 17.246h19.799l9.899-17.246-9.899-17.246h-19.799l-9.899 17.246zM595.655 398.347l9.899 17.246h19.799l9.899-17.246-9.899-17.245h-19.799l-9.899 17.245zM625.357 415.589l9.899 17.246h19.799l9.899-17.246-9.899-17.246h-19.799l-9.899 17.246z"/><path d="M655.047 398.347l9.899 17.246h19.798l9.899-17.246-9.899-17.245h-19.798l-9.899 17.245zM684.749 415.589l9.899 17.246h19.798l9.899-17.246-9.899-17.246h-19.798l-9.899 17.246zM714.45 398.347l9.9 17.246h19.798l9.899-17.246-9.899-17.245H724.35l-9.9 17.245z"/><path d="M744.14 415.589l9.899 17.246h19.799l9.899-17.246-9.899-17.246h-19.799l-9.899 17.246zM773.842 398.347l9.899 17.246h19.798l9.9-17.246-9.9-17.245h-19.798l-9.899 17.245z"/><path d="M803.532 415.589l9.899 17.246h19.798l9.899-17.246-9.899-17.246h-19.798l-9.899 17.246zM833.234 398.347l9.899 17.246h19.798l9.899-17.246-9.899-17.245h-19.798l-9.899 17.245zM862.935 415.589l9.899 17.246h19.799l9.899-17.246-9.899-17.246h-19.799l-9.899 17.246z"/><path d="M892.625 398.347l9.899 17.246h19.799l9.899-17.246-9.899-17.245h-19.799l-9.899 17.245zM922.327 415.589l9.899 17.246h19.798l9.899-17.246-9.899-17.246h-19.798l-9.899 17.246zM952.029 398.347l9.899 17.246h19.798l9.899-17.246-9.899-17.245h-19.798l-9.899 17.245z"/><path d="M981.718 415.589l9.899 17.246h19.803l9.89-17.246-9.89-17.246h-19.803l-9.899 17.246z"/><path d="M1011.42 398.347l9.9 17.246h19.8l9.9-17.246-9.9-17.245h-19.8l-9.9 17.245z"/><path d="M1041.12 415.589l9.9 17.246h19.8l9.9-17.246-9.9-17.246h-19.8l-9.9 17.246z"/><path d="M1070.81 398.347l9.9 17.246h19.8l9.9-17.246-9.9-17.245h-19.8l-9.9 17.245z"/><path d="M1100.51 415.589l9.9 17.246h19.8l9.9-17.246-9.9-17.246h-19.8l-9.9 17.246zM1.703 432.831l9.9 17.245H31.4l9.899-17.245-9.899-17.246H11.603l-9.9 17.246zM31.4 450.085l9.9 17.245h19.798l9.9-17.245-9.9-17.246H41.3l-9.9 17.246zM61.099 432.831l9.899 17.245h19.798l9.899-17.245-9.899-17.246H70.998l-9.9 17.246zM90.796 450.085l9.899 17.245h19.798l9.899-17.245-9.899-17.246h-19.798l-9.9 17.246zM120.493 432.831l9.899 17.245h19.798l9.899-17.245-9.899-17.246h-19.798l-9.899 17.246zM150.188 450.085l9.899 17.245h19.799l9.899-17.245-9.899-17.246h-19.799l-9.899 17.246zM179.89 432.831l9.899 17.245h19.799l9.899-17.245-9.899-17.246h-19.799l-9.899 17.246z"/><path d="M209.58 450.085l9.899 17.245h19.798l9.899-17.245-9.899-17.246h-19.798l-9.899 17.246zM239.282 432.831l9.899 17.245h19.798l9.899-17.245-9.899-17.246h-19.798l-9.899 17.246zM268.984 450.085l9.899 17.245h19.798l9.899-17.245-9.899-17.246h-19.798l-9.899 17.246z"/><path d="M298.673 432.831l9.899 17.245h19.799l9.899-17.245-9.899-17.246h-19.799l-9.899 17.246zM328.375 450.085l9.899 17.245h19.799l9.899-17.245-9.899-17.246h-19.799l-9.899 17.246zM358.077 432.831l9.899 17.245h19.798l9.9-17.245-9.9-17.246h-19.798l-9.899 17.246z"/><path d="M387.767 450.085l9.899 17.245h19.798l9.899-17.245-9.899-17.246h-19.798l-9.899 17.246zM417.469 432.831l9.899 17.245h19.798l9.899-17.245-9.899-17.246h-19.798l-9.899 17.246zM447.17 450.085l9.899 17.245h19.799l9.899-17.245-9.899-17.246h-19.799l-9.899 17.246z"/><path d="M476.86 432.831l9.899 17.245h19.798l9.9-17.245-9.9-17.246h-19.798l-9.899 17.246zM506.562 450.085l9.899 17.245h19.798l9.899-17.245-9.899-17.246h-19.798l-9.899 17.246zM536.264 432.831l9.899 17.245h19.798l9.899-17.245-9.899-17.246h-19.798l-9.899 17.246z"/><path d="M565.953 450.085l9.899 17.245h19.799l9.899-17.245-9.899-17.246h-19.799l-9.899 17.246zM595.655 432.831l9.899 17.245h19.799l9.899-17.245-9.899-17.246h-19.799l-9.899 17.246zM625.357 450.085l9.899 17.245h19.799l9.899-17.245-9.899-17.246h-19.799l-9.899 17.246z"/><path d="M655.047 432.831l9.899 17.245h19.798l9.899-17.245-9.899-17.246h-19.798l-9.899 17.246zM684.749 450.085l9.899 17.245h19.798l9.899-17.245-9.899-17.246h-19.798l-9.899 17.246zM714.45 432.831l9.9 17.245h19.798l9.899-17.245-9.899-17.246H724.35l-9.9 17.246z"/><path d="M744.14 450.085l9.899 17.245h19.799l9.899-17.245-9.899-17.246h-19.799l-9.899 17.246zM773.842 432.831l9.899 17.245h19.798l9.9-17.245-9.9-17.246h-19.798l-9.899 17.246z"/><path d="M803.532 450.085l9.899 17.245h19.798l9.899-17.245-9.899-17.246h-19.798l-9.899 17.246zM833.234 432.831l9.899 17.245h19.798l9.899-17.245-9.899-17.246h-19.798l-9.899 17.246zM862.935 450.085l9.899 17.245h19.799l9.899-17.245-9.899-17.246h-19.799l-9.899 17.246z"/><path d="M892.625 432.831l9.899 17.245h19.799l9.899-17.245-9.899-17.246h-19.799l-9.899 17.246zM922.327 450.085l9.899 17.245h19.798l9.899-17.245-9.899-17.246h-19.798l-9.899 17.246zM952.029 432.831l9.899 17.245h19.798l9.899-17.245-9.899-17.246h-19.798l-9.899 17.246z"/><path d="M981.718 450.085l9.899 17.245h19.803l9.89-17.245-9.89-17.246h-19.803l-9.899 17.246zM1011.42 432.831l9.9 17.245h19.8l9.9-17.245-9.9-17.246h-19.8l-9.9 17.246zM1041.12 450.085l9.9 17.245h19.8l9.9-17.245-9.9-17.246h-19.8l-9.9 17.246z"/><path d="M1070.81 432.831l9.9 17.245h19.8l9.9-17.245-9.9-17.246h-19.8l-9.9 17.246zM1100.51 450.085l9.9 17.245h19.8l9.9-17.245-9.9-17.246h-19.8l-9.9 17.246zM1.703 467.327l9.9 17.245H31.4l9.899-17.245-9.899-17.246H11.603l-9.9 17.246z"/><path d="M31.4 484.569l9.9 17.245h19.798l9.9-17.245-9.9-17.246H41.3l-9.9 17.246z"/><path d="M61.099 467.327l9.899 17.245h19.798l9.899-17.245-9.899-17.246H70.998l-9.9 17.246z"/><path d="M90.796 484.569l9.899 17.245h19.798l9.899-17.245-9.899-17.246h-19.798l-9.9 17.246z"/><path d="M120.493 467.327l9.899 17.245h19.798l9.899-17.245-9.899-17.246h-19.798l-9.899 17.246z"/><path d="M150.188 484.569l9.899 17.245h19.799l9.899-17.245-9.899-17.246h-19.799l-9.899 17.246zM179.89 467.327l9.899 17.245h19.799l9.899-17.245-9.899-17.246h-19.799l-9.899 17.246z"/><path d="M209.58 484.569l9.899 17.245h19.798l9.899-17.245-9.899-17.246h-19.798l-9.899 17.246zM239.282 467.327l9.899 17.245h19.798l9.899-17.245-9.899-17.246h-19.798l-9.899 17.246zM268.984 484.569l9.899 17.245h19.798l9.899-17.245-9.899-17.246h-19.798l-9.899 17.246z"/><path d="M298.673 467.327l9.899 17.245h19.799l9.899-17.245-9.899-17.246h-19.799l-9.899 17.246zM328.375 484.569l9.899 17.245h19.799l9.899-17.245-9.899-17.246h-19.799l-9.899 17.246zM358.077 467.327l9.899 17.245h19.798l9.9-17.245-9.9-17.246h-19.798l-9.899 17.246z"/><path d="M387.767 484.569l9.899 17.245h19.798l9.899-17.245-9.899-17.246h-19.798l-9.899 17.246zM417.469 467.327l9.899 17.245h19.798l9.899-17.245-9.899-17.246h-19.798l-9.899 17.246zM447.17 484.569l9.899 17.245h19.799l9.899-17.245-9.899-17.246h-19.799l-9.899 17.246z"/><path d="M476.86 467.327l9.899 17.245h19.798l9.9-17.245-9.9-17.246h-19.798l-9.899 17.246zM506.562 484.569l9.899 17.245h19.798l9.899-17.245-9.899-17.246h-19.798l-9.899 17.246zM536.264 467.327l9.899 17.245h19.798l9.899-17.245-9.899-17.246h-19.798l-9.899 17.246z"/><path d="M565.953 484.569l9.899 17.245h19.799l9.899-17.245-9.899-17.246h-19.799l-9.899 17.246zM595.655 467.327l9.899 17.245h19.799l9.899-17.245-9.899-17.246h-19.799l-9.899 17.246zM625.357 484.569l9.899 17.245h19.799l9.899-17.245-9.899-17.246h-19.799l-9.899 17.246z"/><path d="M655.047 467.327l9.899 17.245h19.798l9.899-17.245-9.899-17.246h-19.798l-9.899 17.246zM684.749 484.569l9.899 17.245h19.798l9.899-17.245-9.899-17.246h-19.798l-9.899 17.246zM714.45 467.327l9.9 17.245h19.798l9.899-17.245-9.899-17.246H724.35l-9.9 17.246z"/><path d="M744.14 484.569l9.899 17.245h19.799l9.899-17.245-9.899-17.246h-19.799l-9.899 17.246zM773.842 467.327l9.899 17.245h19.798l9.9-17.245-9.9-17.246h-19.798l-9.899 17.246z"/><path d="M803.532 484.569l9.899 17.245h19.798l9.899-17.245-9.899-17.246h-19.798l-9.899 17.246zM833.234 467.327l9.899 17.245h19.798l9.899-17.245-9.899-17.246h-19.798l-9.899 17.246zM862.935 484.569l9.899 17.245h19.799l9.899-17.245-9.899-17.246h-19.799l-9.899 17.246z"/><path d="M892.625 467.327l9.899 17.245h19.799l9.899-17.245-9.899-17.246h-19.799l-9.899 17.246zM922.327 484.569l9.899 17.245h19.798l9.899-17.245-9.899-17.246h-19.798l-9.899 17.246zM952.029 467.327l9.899 17.245h19.798l9.899-17.245-9.899-17.246h-19.798l-9.899 17.246z"/><path d="M981.718 484.569l9.899 17.245h19.803l9.89-17.245-9.89-17.246h-19.803l-9.899 17.246z"/><path d="M1011.42 467.327l9.9 17.245h19.8l9.9-17.245-9.9-17.246h-19.8l-9.9 17.246z"/><path d="M1041.12 484.569l9.9 17.245h19.8l9.9-17.245-9.9-17.246h-19.8l-9.9 17.246z"/><path d="M1070.81 467.327l9.9 17.245h19.8l9.9-17.245-9.9-17.246h-19.8l-9.9 17.246z"/><path d="M1100.51 484.569l9.9 17.245h19.8l9.9-17.245-9.9-17.246h-19.8l-9.9 17.246zM1.703 501.823l9.9 17.245H31.4l9.899-17.245-9.899-17.246H11.603l-9.9 17.246z"/><path d="M31.4 519.065l9.9 17.245h19.798l9.9-17.245-9.9-17.246H41.3l-9.9 17.246z"/><path d="M61.099 501.823l9.899 17.245h19.798l9.899-17.245-9.899-17.246H70.998l-9.9 17.246z"/><path d="M90.796 519.065l9.899 17.245h19.798l9.899-17.245-9.899-17.246h-19.798l-9.9 17.246z"/><path d="M120.493 501.823l9.899 17.245h19.798l9.899-17.245-9.899-17.246h-19.798l-9.899 17.246z"/><path d="M150.188 519.065l9.899 17.245h19.799l9.899-17.245-9.899-17.246h-19.799l-9.899 17.246zM179.89 501.823l9.899 17.245h19.799l9.899-17.245-9.899-17.246h-19.799l-9.899 17.246z"/><path d="M209.58 519.065l9.899 17.245h19.798l9.899-17.245-9.899-17.246h-19.798l-9.899 17.246zM239.282 501.823l9.899 17.245h19.798l9.899-17.245-9.899-17.246h-19.798l-9.899 17.246zM268.984 519.065l9.899 17.245h19.798l9.899-17.245-9.899-17.246h-19.798l-9.899 17.246z"/><path d="M298.673 501.823l9.899 17.245h19.799l9.899-17.245-9.899-17.246h-19.799l-9.899 17.246zM328.375 519.065l9.899 17.245h19.799l9.899-17.245-9.899-17.246h-19.799l-9.899 17.246zM358.077 501.823l9.899 17.245h19.798l9.9-17.245-9.9-17.246h-19.798l-9.899 17.246z"/><path d="M387.767 519.065l9.899 17.245h19.798l9.899-17.245-9.899-17.246h-19.798l-9.899 17.246zM417.469 501.823l9.899 17.245h19.798l9.899-17.245-9.899-17.246h-19.798l-9.899 17.246zM447.17 519.065l9.899 17.245h19.799l9.899-17.245-9.899-17.246h-19.799l-9.899 17.246z"/><path d="M476.86 501.823l9.899 17.245h19.798l9.9-17.245-9.9-17.246h-19.798l-9.899 17.246zM506.562 519.065l9.899 17.245h19.798l9.899-17.245-9.899-17.246h-19.798l-9.899 17.246zM536.264 501.823l9.899 17.245h19.798l9.899-17.245-9.899-17.246h-19.798l-9.899 17.246z"/><path d="M565.953 519.065l9.899 17.245h19.799l9.899-17.245-9.899-17.246h-19.799l-9.899 17.246zM595.655 501.823l9.899 17.245h19.799l9.899-17.245-9.899-17.246h-19.799l-9.899 17.246zM625.357 519.065l9.899 17.245h19.799l9.899-17.245-9.899-17.246h-19.799l-9.899 17.246z"/><path d="M655.047 501.823l9.899 17.245h19.798l9.899-17.245-9.899-17.246h-19.798l-9.899 17.246zM684.749 519.065l9.899 17.245h19.798l9.899-17.245-9.899-17.246h-19.798l-9.899 17.246zM714.45 501.823l9.9 17.245h19.798l9.899-17.245-9.899-17.246H724.35l-9.9 17.246z"/><path d="M744.14 519.065l9.899 17.245h19.799l9.899-17.245-9.899-17.246h-19.799l-9.899 17.246zM773.842 501.823l9.899 17.245h19.798l9.9-17.245-9.9-17.246h-19.798l-9.899 17.246z"/><path d="M803.532 519.065l9.899 17.245h19.798l9.899-17.245-9.899-17.246h-19.798l-9.899 17.246zM833.234 501.823l9.899 17.245h19.798l9.899-17.245-9.899-17.246h-19.798l-9.899 17.246zM862.935 519.065l9.899 17.245h19.799l9.899-17.245-9.899-17.246h-19.799l-9.899 17.246z"/><path d="M892.625 501.823l9.899 17.245h19.799l9.899-17.245-9.899-17.246h-19.799l-9.899 17.246zM922.327 519.065l9.899 17.245h19.798l9.899-17.245-9.899-17.246h-19.798l-9.899 17.246zM952.029 501.823l9.899 17.245h19.798l9.899-17.245-9.899-17.246h-19.798l-9.899 17.246z"/><path d="M981.718 519.065l9.899 17.245h19.803l9.89-17.245-9.89-17.246h-19.803l-9.899 17.246z"/><path d="M1011.42 501.823l9.9 17.245h19.8l9.9-17.245-9.9-17.246h-19.8l-9.9 17.246z"/><path d="M1041.12 519.065l9.9 17.245h19.8l9.9-17.245-9.9-17.246h-19.8l-9.9 17.246z"/><path d="M1070.81 501.823l9.9 17.245h19.8l9.9-17.245-9.9-17.246h-19.8l-9.9 17.246z"/><path d="M1100.51 519.065l9.9 17.245h19.8l9.9-17.245-9.9-17.246h-19.8l-9.9 17.246zM1.703 536.307l9.9 17.245H31.4l9.899-17.245-9.899-17.246H11.603l-9.9 17.246zM31.4 553.561l9.9 17.245h19.798l9.9-17.245-9.9-17.246H41.3l-9.9 17.246zM61.099 536.307l9.899 17.245h19.798l9.899-17.245-9.899-17.246H70.998l-9.9 17.246zM90.796 553.561l9.899 17.245h19.798l9.899-17.245-9.899-17.246h-19.798l-9.9 17.246zM120.493 536.307l9.899 17.245h19.798l9.899-17.245-9.899-17.246h-19.798l-9.899 17.246zM150.188 553.561l9.899 17.245h19.799l9.899-17.245-9.899-17.246h-19.799l-9.899 17.246zM179.89 536.307l9.899 17.245h19.799l9.899-17.245-9.899-17.246h-19.799l-9.899 17.246z"/><path d="M209.58 553.561l9.899 17.245h19.798l9.899-17.245-9.899-17.246h-19.798l-9.899 17.246zM239.282 536.307l9.899 17.245h19.798l9.899-17.245-9.899-17.246h-19.798l-9.899 17.246zM268.984 553.561l9.899 17.245h19.798l9.899-17.245-9.899-17.246h-19.798l-9.899 17.246z"/><path d="M298.673 536.307l9.899 17.245h19.799l9.899-17.245-9.899-17.246h-19.799l-9.899 17.246zM328.375 553.561l9.899 17.245h19.799l9.899-17.245-9.899-17.246h-19.799l-9.899 17.246zM358.077 536.307l9.899 17.245h19.798l9.9-17.245-9.9-17.246h-19.798l-9.899 17.246z"/><path d="M387.767 553.561l9.899 17.245h19.798l9.899-17.245-9.899-17.246h-19.798l-9.899 17.246zM417.469 536.307l9.899 17.245h19.798l9.899-17.245-9.899-17.246h-19.798l-9.899 17.246zM447.17 553.561l9.899 17.245h19.799l9.899-17.245-9.899-17.246h-19.799l-9.899 17.246z"/><path d="M476.86 536.307l9.899 17.245h19.798l9.9-17.245-9.9-17.246h-19.798l-9.899 17.246zM506.562 553.561l9.899 17.245h19.798l9.899-17.245-9.899-17.246h-19.798l-9.899 17.246zM536.264 536.307l9.899 17.245h19.798l9.899-17.245-9.899-17.246h-19.798l-9.899 17.246z"/><path d="M565.953 553.561l9.899 17.245h19.799l9.899-17.245-9.899-17.246h-19.799l-9.899 17.246zM595.655 536.307l9.899 17.245h19.799l9.899-17.245-9.899-17.246h-19.799l-9.899 17.246zM625.357 553.561l9.899 17.245h19.799l9.899-17.245-9.899-17.246h-19.799l-9.899 17.246z"/><path d="M655.047 536.307l9.899 17.245h19.798l9.899-17.245-9.899-17.246h-19.798l-9.899 17.246zM684.749 553.561l9.899 17.245h19.798l9.899-17.245-9.899-17.246h-19.798l-9.899 17.246zM714.45 536.307l9.9 17.245h19.798l9.899-17.245-9.899-17.246H724.35l-9.9 17.246z"/><path d="M744.14 553.561l9.899 17.245h19.799l9.899-17.245-9.899-17.246h-19.799l-9.899 17.246zM773.842 536.307l9.899 17.245h19.798l9.9-17.245-9.9-17.246h-19.798l-9.899 17.246z"/><path d="M803.532 553.561l9.899 17.245h19.798l9.899-17.245-9.899-17.246h-19.798l-9.899 17.246zM833.234 536.307l9.899 17.245h19.798l9.899-17.245-9.899-17.246h-19.798l-9.899 17.246zM862.935 553.561l9.899 17.245h19.799l9.899-17.245-9.899-17.246h-19.799l-9.899 17.246z"/><path d="M892.625 536.307l9.899 17.245h19.799l9.899-17.245-9.899-17.246h-19.799l-9.899 17.246zM922.327 553.561l9.899 17.245h19.798l9.899-17.245-9.899-17.246h-19.798l-9.899 17.246zM952.029 536.307l9.899 17.245h19.798l9.899-17.245-9.899-17.246h-19.798l-9.899 17.246z"/><path d="M981.718 553.561l9.899 17.245h19.803l9.89-17.245-9.89-17.246h-19.803l-9.899 17.246zM1011.42 536.307l9.9 17.245h19.8l9.9-17.245-9.9-17.246h-19.8l-9.9 17.246zM1041.12 553.561l9.9 17.245h19.8l9.9-17.245-9.9-17.246h-19.8l-9.9 17.246z"/><path d="M1070.81 536.307l9.9 17.245h19.8l9.9-17.245-9.9-17.246h-19.8l-9.9 17.246zM1100.51 553.561l9.9 17.245h19.8l9.9-17.245-9.9-17.246h-19.8l-9.9 17.246zM1.703 570.803l9.9 17.245H31.4l9.899-17.245-9.899-17.246H11.603l-9.9 17.246z"/><path d="M31.4 588.045l9.9 17.245h19.798l9.9-17.245-9.9-17.246H41.3l-9.9 17.246z"/><path d="M61.099 570.803l9.899 17.245h19.798l9.899-17.245-9.899-17.246H70.998l-9.9 17.246z"/><path d="M90.796 588.045l9.899 17.245h19.798l9.899-17.245-9.899-17.246h-19.798l-9.9 17.246z"/><path d="M120.493 570.803l9.899 17.245h19.798l9.899-17.245-9.899-17.246h-19.798l-9.899 17.246z"/><path d="M150.188 588.045l9.899 17.245h19.799l9.899-17.245-9.899-17.246h-19.799l-9.899 17.246zM179.89 570.803l9.899 17.245h19.799l9.899-17.245-9.899-17.246h-19.799l-9.899 17.246z"/><path d="M209.58 588.045l9.899 17.245h19.798l9.899-17.245-9.899-17.246h-19.798l-9.899 17.246zM239.282 570.803l9.899 17.245h19.798l9.899-17.245-9.899-17.246h-19.798l-9.899 17.246zM268.984 588.045l9.899 17.245h19.798l9.899-17.245-9.899-17.246h-19.798l-9.899 17.246z"/><path d="M298.673 570.803l9.899 17.245h19.799l9.899-17.245-9.899-17.246h-19.799l-9.899 17.246zM328.375 588.045l9.899 17.245h19.799l9.899-17.245-9.899-17.246h-19.799l-9.899 17.246zM358.077 570.803l9.899 17.245h19.798l9.9-17.245-9.9-17.246h-19.798l-9.899 17.246z"/><path d="M387.767 588.045l9.899 17.245h19.798l9.899-17.245-9.899-17.246h-19.798l-9.899 17.246zM417.469 570.803l9.899 17.245h19.798l9.899-17.245-9.899-17.246h-19.798l-9.899 17.246zM447.17 588.045l9.899 17.245h19.799l9.899-17.245-9.899-17.246h-19.799l-9.899 17.246z"/><path d="M476.86 570.803l9.899 17.245h19.798l9.9-17.245-9.9-17.246h-19.798l-9.899 17.246zM506.562 588.045l9.899 17.245h19.798l9.899-17.245-9.899-17.246h-19.798l-9.899 17.246zM536.264 570.803l9.899 17.245h19.798l9.899-17.245-9.899-17.246h-19.798l-9.899 17.246z"/><path d="M565.953 588.045l9.899 17.245h19.799l9.899-17.245-9.899-17.246h-19.799l-9.899 17.246zM595.655 570.803l9.899 17.245h19.799l9.899-17.245-9.899-17.246h-19.799l-9.899 17.246zM625.357 588.045l9.899 17.245h19.799l9.899-17.245-9.899-17.246h-19.799l-9.899 17.246z"/><path d="M655.047 570.803l9.899 17.245h19.798l9.899-17.245-9.899-17.246h-19.798l-9.899 17.246zM684.749 588.045l9.899 17.245h19.798l9.899-17.245-9.899-17.246h-19.798l-9.899 17.246zM714.45 570.803l9.9 17.245h19.798l9.899-17.245-9.899-17.246H724.35l-9.9 17.246z"/><path d="M744.14 588.045l9.899 17.245h19.799l9.899-17.245-9.899-17.246h-19.799l-9.899 17.246zM773.842 570.803l9.899 17.245h19.798l9.9-17.245-9.9-17.246h-19.798l-9.899 17.246z"/><path d="M803.532 588.045l9.899 17.245h19.798l9.899-17.245-9.899-17.246h-19.798l-9.899 17.246zM833.234 570.803l9.899 17.245h19.798l9.899-17.245-9.899-17.246h-19.798l-9.899 17.246zM862.935 588.045l9.899 17.245h19.799l9.899-17.245-9.899-17.246h-19.799l-9.899 17.246z"/><path d="M892.625 570.803l9.899 17.245h19.799l9.899-17.245-9.899-17.246h-19.799l-9.899 17.246zM922.327 588.045l9.899 17.245h19.798l9.899-17.245-9.899-17.246h-19.798l-9.899 17.246zM952.029 570.803l9.899 17.245h19.798l9.899-17.245-9.899-17.246h-19.798l-9.899 17.246z"/><path d="M981.718 588.045l9.899 17.245h19.803l9.89-17.245-9.89-17.246h-19.803l-9.899 17.246z"/><path d="M1011.42 570.803l9.9 17.245h19.8l9.9-17.245-9.9-17.246h-19.8l-9.9 17.246z"/><path d="M1041.12 588.045l9.9 17.245h19.8l9.9-17.245-9.9-17.246h-19.8l-9.9 17.246z"/><path d="M1070.81 570.803l9.9 17.245h19.8l9.9-17.245-9.9-17.246h-19.8l-9.9 17.246z"/><path d="M1100.51 588.045l9.9 17.245h19.8l9.9-17.245-9.9-17.246h-19.8l-9.9 17.246zM1.703 605.287l9.9 17.245H31.4l9.899-17.245-9.899-17.246H11.603l-9.9 17.246zM31.4 622.541l9.9 17.245h19.798l9.9-17.245-9.9-17.246H41.3l-9.9 17.246zM61.099 605.287l9.899 17.245h19.798l9.899-17.245-9.899-17.246H70.998l-9.9 17.246zM90.796 622.541l9.899 17.245h19.798l9.899-17.245-9.899-17.246h-19.798l-9.9 17.246zM120.493 605.287l9.899 17.245h19.798l9.899-17.245-9.899-17.246h-19.798l-9.899 17.246zM150.188 622.541l9.899 17.245h19.799l9.899-17.245-9.899-17.246h-19.799l-9.899 17.246zM179.89 605.287l9.899 17.245h19.799l9.899-17.245-9.899-17.246h-19.799l-9.899 17.246z"/><path d="M209.58 622.541l9.899 17.245h19.798l9.899-17.245-9.899-17.246h-19.798l-9.899 17.246zM239.282 605.287l9.899 17.245h19.798l9.899-17.245-9.899-17.246h-19.798l-9.899 17.246zM268.984 622.541l9.899 17.245h19.798l9.899-17.245-9.899-17.246h-19.798l-9.899 17.246z"/><path d="M298.673 605.287l9.899 17.245h19.799l9.899-17.245-9.899-17.246h-19.799l-9.899 17.246zM328.375 622.541l9.899 17.245h19.799l9.899-17.245-9.899-17.246h-19.799l-9.899 17.246zM358.077 605.287l9.899 17.245h19.798l9.9-17.245-9.9-17.246h-19.798l-9.899 17.246z"/><path d="M387.767 622.541l9.899 17.245h19.798l9.899-17.245-9.899-17.246h-19.798l-9.899 17.246zM417.469 605.287l9.899 17.245h19.798l9.899-17.245-9.899-17.246h-19.798l-9.899 17.246zM447.17 622.541l9.899 17.245h19.799l9.899-17.245-9.899-17.246h-19.799l-9.899 17.246z"/><path d="M476.86 605.287l9.899 17.245h19.798l9.9-17.245-9.9-17.246h-19.798l-9.899 17.246zM506.562 622.541l9.899 17.245h19.798l9.899-17.245-9.899-17.246h-19.798l-9.899 17.246zM536.264 605.287l9.899 17.245h19.798l9.899-17.245-9.899-17.246h-19.798l-9.899 17.246z"/><path d="M565.953 622.541l9.899 17.245h19.799l9.899-17.245-9.899-17.246h-19.799l-9.899 17.246zM595.655 605.287l9.899 17.245h19.799l9.899-17.245-9.899-17.246h-19.799l-9.899 17.246zM625.357 622.541l9.899 17.245h19.799l9.899-17.245-9.899-17.246h-19.799l-9.899 17.246z"/><path d="M655.047 605.287l9.899 17.245h19.798l9.899-17.245-9.899-17.246h-19.798l-9.899 17.246zM684.749 622.541l9.899 17.245h19.798l9.899-17.245-9.899-17.246h-19.798l-9.899 17.246zM714.45 605.287l9.9 17.245h19.798l9.899-17.245-9.899-17.246H724.35l-9.9 17.246z"/><path d="M744.14 622.541l9.899 17.245h19.799l9.899-17.245-9.899-17.246h-19.799l-9.899 17.246zM773.842 605.287l9.899 17.245h19.798l9.9-17.245-9.9-17.246h-19.798l-9.899 17.246z"/><path d="M803.532 622.541l9.899 17.245h19.798l9.899-17.245-9.899-17.246h-19.798l-9.899 17.246zM833.234 605.287l9.899 17.245h19.798l9.899-17.245-9.899-17.246h-19.798l-9.899 17.246zM862.935 622.541l9.899 17.245h19.799l9.899-17.245-9.899-17.246h-19.799l-9.899 17.246z"/><path d="M892.625 605.287l9.899 17.245h19.799l9.899-17.245-9.899-17.246h-19.799l-9.899 17.246zM922.327 622.541l9.899 17.245h19.798l9.899-17.245-9.899-17.246h-19.798l-9.899 17.246zM952.029 605.287l9.899 17.245h19.798l9.899-17.245-9.899-17.246h-19.798l-9.899 17.246z"/><path d="M981.718 622.541l9.899 17.245h19.803l9.89-17.245-9.89-17.246h-19.803l-9.899 17.246zM1011.42 605.287l9.9 17.245h19.8l9.9-17.245-9.9-17.246h-19.8l-9.9 17.246zM1041.12 622.541l9.9 17.245h19.8l9.9-17.245-9.9-17.246h-19.8l-9.9 17.246z"/><path d="M1070.81 605.287l9.9 17.245h19.8l9.9-17.245-9.9-17.246h-19.8l-9.9 17.246zM1100.51 622.541l9.9 17.245h19.8l9.9-17.245-9.9-17.246h-19.8l-9.9 17.246zM1.703 639.783l9.9 17.245H31.4l9.899-17.245-9.899-17.246H11.603l-9.9 17.246z"/><path d="M31.4 657.024l9.9 17.246h19.798l9.9-17.246-9.9-17.245H41.3l-9.9 17.245z"/><path d="M61.099 639.783l9.899 17.245h19.798l9.899-17.245-9.899-17.246H70.998l-9.9 17.246z"/><path d="M90.796 657.024l9.899 17.246h19.798l9.899-17.246-9.899-17.245h-19.798l-9.9 17.245z"/><path d="M120.493 639.783l9.899 17.245h19.798l9.899-17.245-9.899-17.246h-19.798l-9.899 17.246z"/><path d="M150.188 657.024l9.899 17.246h19.799l9.899-17.246-9.899-17.245h-19.799l-9.899 17.245zM179.89 639.783l9.899 17.245h19.799l9.899-17.245-9.899-17.246h-19.799l-9.899 17.246z"/><path d="M209.58 657.024l9.899 17.246h19.798l9.899-17.246-9.899-17.245h-19.798l-9.899 17.245zM239.282 639.783l9.899 17.245h19.798l9.899-17.245-9.899-17.246h-19.798l-9.899 17.246zM268.984 657.024l9.899 17.246h19.798l9.899-17.246-9.899-17.245h-19.798l-9.899 17.245z"/><path d="M298.673 639.783l9.899 17.245h19.799l9.899-17.245-9.899-17.246h-19.799l-9.899 17.246zM328.375 657.024l9.899 17.246h19.799l9.899-17.246-9.899-17.245h-19.799l-9.899 17.245zM358.077 639.783l9.899 17.245h19.798l9.9-17.245-9.9-17.246h-19.798l-9.899 17.246z"/><path d="M387.767 657.024l9.899 17.246h19.798l9.899-17.246-9.899-17.245h-19.798l-9.899 17.245zM417.469 639.783l9.899 17.245h19.798l9.899-17.245-9.899-17.246h-19.798l-9.899 17.246zM447.17 657.024l9.899 17.246h19.799l9.899-17.246-9.899-17.245h-19.799l-9.899 17.245z"/><path d="M476.86 639.783l9.899 17.245h19.798l9.9-17.245-9.9-17.246h-19.798l-9.899 17.246zM506.562 657.024l9.899 17.246h19.798l9.899-17.246-9.899-17.245h-19.798l-9.899 17.245zM536.264 639.783l9.899 17.245h19.798l9.899-17.245-9.899-17.246h-19.798l-9.899 17.246z"/><path d="M565.953 657.024l9.899 17.246h19.799l9.899-17.246-9.899-17.245h-19.799l-9.899 17.245zM595.655 639.783l9.899 17.245h19.799l9.899-17.245-9.899-17.246h-19.799l-9.899 17.246zM625.357 657.024l9.899 17.246h19.799l9.899-17.246-9.899-17.245h-19.799l-9.899 17.245z"/><path d="M655.047 639.783l9.899 17.245h19.798l9.899-17.245-9.899-17.246h-19.798l-9.899 17.246zM684.749 657.024l9.899 17.246h19.798l9.899-17.246-9.899-17.245h-19.798l-9.899 17.245zM714.45 639.783l9.9 17.245h19.798l9.899-17.245-9.899-17.246H724.35l-9.9 17.246z"/><path d="M744.14 657.024l9.899 17.246h19.799l9.899-17.246-9.899-17.245h-19.799l-9.899 17.245zM773.842 639.783l9.899 17.245h19.798l9.9-17.245-9.9-17.246h-19.798l-9.899 17.246z"/><path d="M803.532 657.024l9.899 17.246h19.798l9.899-17.246-9.899-17.245h-19.798l-9.899 17.245zM833.234 639.783l9.899 17.245h19.798l9.899-17.245-9.899-17.246h-19.798l-9.899 17.246zM862.935 657.024l9.899 17.246h19.799l9.899-17.246-9.899-17.245h-19.799l-9.899 17.245z"/><path d="M892.625 639.783l9.899 17.245h19.799l9.899-17.245-9.899-17.246h-19.799l-9.899 17.246zM922.327 657.024l9.899 17.246h19.798l9.899-17.246-9.899-17.245h-19.798l-9.899 17.245zM952.029 639.783l9.899 17.245h19.798l9.899-17.245-9.899-17.246h-19.798l-9.899 17.246z"/><path d="M981.718 657.024l9.899 17.246h19.803l9.89-17.246-9.89-17.245h-19.803l-9.899 17.245z"/><path d="M1011.42 639.783l9.9 17.245h19.8l9.9-17.245-9.9-17.246h-19.8l-9.9 17.246z"/><path d="M1041.12 657.024l9.9 17.246h19.8l9.9-17.246-9.9-17.245h-19.8l-9.9 17.245z"/><path d="M1070.81 639.783l9.9 17.245h19.8l9.9-17.245-9.9-17.246h-19.8l-9.9 17.246z"/><path d="M1100.51 657.024l9.9 17.246h19.8l9.9-17.246-9.9-17.245h-19.8l-9.9 17.245z"/></g><defs><clipPath id="clip0"><path fill="#fff" d="M0 0h1157.3v685.14H0z"/></clipPath></defs></svg>